<svg id="Layer_1" data-name="Layer 1" xmlns="http://www.w3.org/2000/svg" viewBox="0 0 275.95 213.32"><defs><style>.cls-1{fill:#d5ad34;}.cls-2{font-size:141.03px;font-family:Staccato222BT-Regular, Staccato222 BT;}.cls-2,.cls-3{fill:#bfa700;}</style></defs><path class="cls-1" d="M366.41,486.77c-.56.82,0,.75,0,.92C367.18,486.23,366.29,486.75,366.41,486.77Z" transform="translate(-171.04 -321.48)"/><polygon class="cls-1" points="202.32 150.59 202.36 150.93 202.92 148.57 202.32 150.59"/><path class="cls-1" d="M378.59,457.9c-1.12,1.15-1.47,5.28-2.72,7.7l-.31.36.11,1.34c.52-1.56,1.12-3.35,1.58-5.05A40.4,40.4,0,0,1,378.59,457.9Z" transform="translate(-171.04 -321.48)"/><path class="cls-1" d="M382,450.37c-.37.44.13-1.78-.47,1.85a2.11,2.11,0,0,1,.14-.32C381.73,451.57,381.82,451.13,382,450.37Z" transform="translate(-171.04 -321.48)"/><path class="cls-1" d="M381.67,451.9c-.32,1.58.44-1,0,0Z" transform="translate(-171.04 -321.48)"/><path class="cls-1" d="M382.87,444.54l-.1,2.14c.24-.41.57-2.29.58-1.57C383.56,442.92,383.33,443.35,382.87,444.54Z" transform="translate(-171.04 -321.48)"/><path class="cls-1" d="M382.64,442.48c0,.36,0,.73,0,1.1A1.61,1.61,0,0,0,382.64,442.48Z" transform="translate(-171.04 -321.48)"/><path class="cls-1" d="M382.45,445.91l.15-2.33c-.17.28-.4.28-.09,1.06C382.33,444.42,382.46,444.91,382.45,445.91Z" transform="translate(-171.04 -321.48)"/><path class="cls-1" d="M382.13,447.19c-.32,1.16-.75,2.63-.58.51-.33,2-.39,2.85-.23,2.74A9.69,9.69,0,0,0,382.13,447.19Z" transform="translate(-171.04 -321.48)"/><path class="cls-1" d="M378.07,457c-.19.49-.39,1-.62,1.44l-.18,1.36a10.85,10.85,0,0,1,.55-1.66C378,457.47,378.19,456.93,378.07,457Z" transform="translate(-171.04 -321.48)"/><path class="cls-1" d="M384.37,431.36c-.15-.13-.42.71-.61.86.06.52.08,1,.1,1.57C384,433,384.14,431.47,384.37,431.36Z" transform="translate(-171.04 -321.48)"/><path class="cls-1" d="M383.76,432.22l-.23-2.35C383.47,432,383.59,432.35,383.76,432.22Z" transform="translate(-171.04 -321.48)"/><path class="cls-1" d="M381.89,442c.07,1.29,0,2.57,0,3.86.06-1.53.13-3.06.09-4.59Z" transform="translate(-171.04 -321.48)"/><path class="cls-1" d="M384.24,422.36l.41,1.32c-.2-.78-.42-1.57-.67-2.34Z" transform="translate(-171.04 -321.48)"/><path class="cls-1" d="M383.64,416.43c.42.95.32-1.41.63-.39a25.7,25.7,0,0,0-1.09-4.16A18.12,18.12,0,0,1,383.64,416.43Z" transform="translate(-171.04 -321.48)"/><path class="cls-1" d="M382.48,409.88c.19.63.43,1.29.7,2A14.37,14.37,0,0,0,382.48,409.88Z" transform="translate(-171.04 -321.48)"/><path class="cls-1" d="M383.57,425.89a4.06,4.06,0,0,0,.37-1.86l-.4.94Z" transform="translate(-171.04 -321.48)"/><path class="cls-1" d="M383.53,425v0c0-1,0-1.69,0-2Z" transform="translate(-171.04 -321.48)"/><path class="cls-1" d="M383.57,426.12v-.23A.21.21,0,0,0,383.57,426.12Z" transform="translate(-171.04 -321.48)"/><path class="cls-1" d="M382.85,436c-.15-1.38-.23-4.22-.76-1.5C382.32,435.46,382.62,433.9,382.85,436Z" transform="translate(-171.04 -321.48)"/><path class="cls-1" d="M383.08,427.27c0,.83-.08,1.65-.11,2.47.11,0,.28-.49.39.19C383.27,429,383.21,428.16,383.08,427.27Z" transform="translate(-171.04 -321.48)"/><polygon class="cls-1" points="211.86 104.58 212.04 105.79 212.05 104.87 211.86 104.58"/><path class="cls-1" d="M382.76,414.16a13,13,0,0,1-.39-1.66c-.12-.58-.25-1.19-.39-1.84.17,1.41.35,2.87.52,4.25C382.65,415.09,383,415.67,382.76,414.16Z" transform="translate(-171.04 -321.48)"/><path class="cls-1" d="M383.23,419.42l0-.23C383.17,419.34,383.16,419.45,383.23,419.42Z" transform="translate(-171.04 -321.48)"/><path class="cls-1" d="M379,398l0,.23.09,0Z" transform="translate(-171.04 -321.48)"/><path class="cls-1" d="M382.45,415.16a7,7,0,0,0,.45,2.27c-.15-.78-.28-1.62-.4-2.52C382.42,414.83,382.38,414.82,382.45,415.16Z" transform="translate(-171.04 -321.48)"/><path class="cls-1" d="M381.59,406.32c.05.57.11,1.2.15,1.87A4.8,4.8,0,0,0,381.59,406.32Z" transform="translate(-171.04 -321.48)"/><path class="cls-1" d="M383.28,418.82l0,.15C383.37,418.62,383.33,418.66,383.28,418.82Z" transform="translate(-171.04 -321.48)"/><path class="cls-1" d="M383.28,418.82a12.88,12.88,0,0,0-.38-1.39c.09.65.18,1.24.29,1.76A1.67,1.67,0,0,1,383.28,418.82Z" transform="translate(-171.04 -321.48)"/><path class="cls-1" d="M375.19,395.09c.22,0,.63.66,1,1.59a10.59,10.59,0,0,1,.56,1.57,13.39,13.39,0,0,1,.31,1.79c.92,2.16,1.77.37,1.9-1.85-.2,0-.29,0-1.3-2.24.13.87,1.05,5.32.16,3.45a15.77,15.77,0,0,1-.77-2.6,12.79,12.79,0,0,0-.15-1.5c0,1.4-2-3.63-2.47-2.7.43.83.78,1.69,1.16,2.54C375.53,395.22,375,394.33,375.19,395.09Z" transform="translate(-171.04 -321.48)"/><path class="cls-1" d="M380.2,402.7l.27,1c-.17-1.14-.24-2-.36-3.52-.64-1.57-.88-1.86-1-1.94.41,1.61.89,3.2,1.25,4.81Z" transform="translate(-171.04 -321.48)"/><path class="cls-1" d="M381.46,408.09c-.54-.7-1.3-3-1.41-1.46.64,2.86.74,1.95,1.26,3.64-.95-4.66.47,1.31.1-2.13.24.91.41,1.74.57,2.52-.1-.86-.18-1.69-.24-2.47v.13h0c0,.21,0,.29-.05.05a.25.25,0,0,1,0-.1.42.42,0,0,1-.2-.18c-.16-1.38.07-.23.2.18,0,0,0,.05.07.05v0c-.34-1.56-.84-3.09-1.26-4.63C380.63,404.68,381,405.9,381.46,408.09Z" transform="translate(-171.04 -321.48)"/><path class="cls-1" d="M381.28,431.92c0-.14.07-.13.1-.15C381.33,431.47,381.29,431.35,381.28,431.92Z" transform="translate(-171.04 -321.48)"/><path class="cls-1" d="M381.56,430a4.74,4.74,0,0,1,.17,1.74c-.15,1-.21,0-.35,0,.11.68.24,2.36.51.26l-.05-.33a14.51,14.51,0,0,1,.8-4A7.3,7.3,0,0,0,381.56,430Z" transform="translate(-171.04 -321.48)"/><path class="cls-1" d="M382,419c-.15-1.31-.41-2.6-.65-3.9l-.11,2,.21-.12C381.55,419.21,381.75,418.71,382,419Z" transform="translate(-171.04 -321.48)"/><path class="cls-1" d="M379.09,397.46l.58.38c-.4-.69-.88-1.34-1.32-2Z" transform="translate(-171.04 -321.48)"/><path class="cls-1" d="M377.4,392.55l.44.05c-.23-.41-.48-.8-.72-1.2Z" transform="translate(-171.04 -321.48)"/><path class="cls-1" d="M175.43,423.85l0,1.13C175.47,424.45,175.46,424.11,175.43,423.85Z" transform="translate(-171.04 -321.48)"/><path class="cls-1" d="M176.16,415.78l-.17-.22C176.06,416,176.12,416.11,176.16,415.78Z" transform="translate(-171.04 -321.48)"/><path class="cls-1" d="M280.16,322.18c-1.7-.39-3.62-1-3.41-.54l.52.44A15.79,15.79,0,0,1,280.16,322.18Z" transform="translate(-171.04 -321.48)"/><path class="cls-1" d="M203.19,355.53l.43-.26.52-1.07C203.86,354.6,203.51,355,203.19,355.53Z" transform="translate(-171.04 -321.48)"/><path class="cls-1" d="M203.67,357.64,202,359C202.38,358.73,202.93,358.28,203.67,357.64Z" transform="translate(-171.04 -321.48)"/><path class="cls-1" d="M183.24,467c.29.35.58.7.9,1C183.36,466.16,183.51,467.06,183.24,467Z" transform="translate(-171.04 -321.48)"/><path class="cls-1" d="M347.77,349.1c-1-1.09-1.85-1.91-2.62-2.6C346.34,347.85,347.18,349.06,347.77,349.1Z" transform="translate(-171.04 -321.48)"/><path class="cls-1" d="M171,420.31c0,.72.1,1,.2,1C171.21,420.58,171.15,420.16,171,420.31Z" transform="translate(-171.04 -321.48)"/><path class="cls-1" d="M341.8,343.87l.55.56a25.6,25.6,0,0,1,2.8,2.07A11.44,11.44,0,0,0,341.8,343.87Z" transform="translate(-171.04 -321.48)"/><path class="cls-1" d="M316.09,522.64c.12,0,.25-.08.36-.1S316.31,522.53,316.09,522.64Z" transform="translate(-171.04 -321.48)"/><path class="cls-1" d="M357,498.41c-.29.38-.8,1-1.27,1.54A19.71,19.71,0,0,0,357,498.41Z" transform="translate(-171.04 -321.48)"/><path class="cls-1" d="M368.62,373.61c.58.93.14.12,0,0Z" transform="translate(-171.04 -321.48)"/><path class="cls-1" d="M369.75,379.08c-.15-.18-.29-.3-.4-.28A.78.78,0,0,1,369.75,379.08Z" transform="translate(-171.04 -321.48)"/><path class="cls-1" d="M331.33,340l-.08-.05C331.48,340.17,331.44,340.13,331.33,340Z" transform="translate(-171.04 -321.48)"/><path class="cls-1" d="M369.27,375.15c-.15-.39-.35-.83-.58-1.3C368.78,374.07,369,374.46,369.27,375.15Z" transform="translate(-171.04 -321.48)"/><path class="cls-1" d="M369.34,374.85l.44.86C369.91,375.79,369.89,375.66,369.34,374.85Z" transform="translate(-171.04 -321.48)"/><path class="cls-1" d="M367.78,372.32c.34.53.64,1,.91,1.53-.09-.19-.12-.28-.07-.24Z" transform="translate(-171.04 -321.48)"/><path class="cls-1" d="M232.2,521.3l.18.14C233.42,521.75,233,521.57,232.2,521.3Z" transform="translate(-171.04 -321.48)"/><path class="cls-1" d="M252.83,329.59l.11,0-.15,0Z" transform="translate(-171.04 -321.48)"/><path class="cls-1" d="M249.26,330.88a6.91,6.91,0,0,1,3.53-1.32c-.51-.3-1-.63-1.53-.92Z" transform="translate(-171.04 -321.48)"/><path class="cls-1" d="M176.47,443.2l.05-2.67c1,3.08,1.14,5.36,1.35,2.84-.35,0-.62-.69-.84-1.65a23.61,23.61,0,0,1-.53-3.5c-.12-1.27-.25-2.54-.43-3.51s-.33-1.66-.67-1.74l.22-1.75c0,.5.09.58.09,1.07.52-3.39-1.05-2.5-.81-6.9.15-1.53.45-2.58.53-1.54l-.12-3.42c.1-1,.3-.72.22.26.08-1.73.29-3.45.43-5.17l0,0a29.51,29.51,0,0,1-.18-3.31c.4-1.28,0,.68.26.37.05-1,.06-1.94.15-2.91.29-.54.39-.21.38.5a15.08,15.08,0,0,1-.28,2.78,3.86,3.86,0,0,0,.9-2.81,15,15,0,0,1,1.11-5.12c-.17.89-.27,1.79-.41,2.68a9.94,9.94,0,0,0,1.22-2.75c.37-1.06.75-2.28,1.36-3.68-.42.6-2.72,5.58-2.26,2.5a13.83,13.83,0,0,0,.85-3.63c.46.12.84-1.47,1.44-3.44l.56.33a15.73,15.73,0,0,0,.36-3.41c.92-2.3,1.56-2.6,2.18-3,1.66-3.58-1.81,2.21-.07-2.14.38-.73.71-1.42,1-2.1s.62-1.32.91-2c.59-1.37,1.1-2.87,1.92-4.67,1.32-1.92.15.54.71-.1l.55-2c.26-.43.31-.21.34-.1.71-1.59-.49-.45.8-2.86-.09-.49.84-1.58,2-2.88a17.19,17.19,0,0,0,3.23-4.43c.66-.54.07.56.43.5,2.4-4,2.07-3.38,4-6.72.81-.73,1.61-1.46,2.48-2.14-2,1.41-.32-1.18,1.21-3.48-.75.46-1.41.86-1.82,1.15.91-1.13,1.82-2.27,2.81-3.33.46-.29.29.17,0,.85l.47-.66c1.29-.89,1-.07.41.95l-1.4.78c-.46,1.05-.83,2.07-.41,2.17a8.12,8.12,0,0,1,.84-1.14c-.11.28-.17.47,0,.42s.33-.49.73-1.08l1.2-.16,0-.36c1.45-1.18,2.88-2.36,4.4-3.42l1.84-2.36c.65-.76,1.32-1.54,2.05-2.36a26.11,26.11,0,0,1,2.52-2.54,39,39,0,0,1,3.36-2.72c-1.06,1.28.18.89.45,1.45a7.94,7.94,0,0,0-2.95,1.9l-1.71,1.48a23.45,23.45,0,0,1-1.87,1.53c1.39-1,1.27-.53,1-.18,1.38-1.39,2.89-2.61,4.36-3.91.18.49,1.22-.41,2.64-1-.76-.11.07-.83,1.32-1.72s3-1.82,4-2.56c.29.22,0,.8-2.6,2.16,3.16-.9,3-3.13,6.14-4-.63.33-1,.45-1.17.73a17.57,17.57,0,0,1,3-1.6c1-.44,1.79-.6,1.41-.29l-.64.3c1.08-.45,2.44-1,3.88-1.69s3-1.21,4.4-1.83c2.86-1.14,5.25-2.17,5.47-2.66a3.52,3.52,0,0,1-.51,1.41c2.39-1.71,4.86-3.42,7.45-4.94-.56.88,2.58,1.94-1.12,3.21a26.32,26.32,0,0,0,4.73-1.06c-.77,0-2.08-.69-1.07-1,3,.3,2.06,0,5.65.17-1.16,0-.07-1.31,1.75-1.51-.26.21.29,1.1-.35,1.31,1.44-.58,2.88-1.15,4.36-1.62-1.11.3-.11,1,.92,1.2-.24-.09.72-.17,1.9-.25s2.56,0,3.15-.13l-1.91-.19a14.72,14.72,0,0,0,5-.85,12.09,12.09,0,0,1,5.08-.68c-.64.19-1.57,1.34,1,1.63a22.39,22.39,0,0,1,10.08-2.16l.82.47c1.17.06,2.36.1,3.53.24-1.15.16-3.34.54-5.6.83s-4.64.75-6.28.92c1.86.45.49.44,3.3.72,1,.41-1.58.29-2.4.22,2.16.31,4.33.58,6.47,1-.1-.35,1.17-.32,2.45-.28s2.54.23,2.47-.07c-2.38-.32-4.79-.39-7.17-.55-.1-.36,1-.67,2.69-.78a18.36,18.36,0,0,1,3,0,27,27,0,0,1,3.39.58c1.12.5-1.14,1-1.08,1.22a10.66,10.66,0,0,1,2.5.27,11.09,11.09,0,0,1,2.3.61l-2-.16a12.86,12.86,0,0,0,3.45.63,9.56,9.56,0,0,1,3.71,1.17c1,.34,2.76,1.86,3.07,1.55-1.38-1.33-1-3.7.37-3.82l2.87,1.53a25.17,25.17,0,0,1,3.32,2.11c1.42,1.26-3.05.24-1.84,1.33.13-.15,1.13,0,1.54.13,1,.6-.66.34,1.64,1.24.66-.45,4.51,2.27,1.3,0a15,15,0,0,1,2.3,1.12c.6.37,1.26.74,2.5,1.44-.61-.82,3-.12,5.22,1-.22.07.14.56.31.79,1.06.68,2,1.29,2.85,1.87s1.59,1.21,2.34,1.78l2.28,1.74c.76.63,1.58,1.29,2.5,2,.25.39,1.89,1.94.95,1.57a10.88,10.88,0,0,1,2.31,1.49c1.72,2.25-2.49-2-1.34-.1.38-.17,3.21,2,4.82,3.24,0-.43-.84-1.31-1.93-2.14s-2.38-1.7-3.23-2.27c.26-.33,1.21-.08,2.61.63a21,21,0,0,1,2.38,1.4c.86.6,1.78,1.3,2.75,2.09,1.52,1.27,1.68,1.73,1.6,1.83s-.47-.05-.19.16a29.68,29.68,0,0,0,3,2.93,24.12,24.12,0,0,0,2,1.6,13.07,13.07,0,0,1,3.86,4.32c1.07,2.26-.79.74-.76,1.4a25.44,25.44,0,0,1-2.34-3.14,28.11,28.11,0,0,0-1.88-2.53l1.54,2.18a17.77,17.77,0,0,1-2.92-3.16,17.8,17.8,0,0,0,1.71,2.34l1.42,1.71,1.55,2c.53.7,1.11,1.42,1.64,2.16l1.55,2.26a37.77,37.77,0,0,1,2.53,4.21c.69.75,1.78,2.13,1.52,1.32l-1-1.48c-.51-1.63,2.32,2.55,1.28.52.8.93,1.55,2,2.37,3.14.41.59.81,1.21,1.2,1.88s.72,1.42,1.05,2.21l-.26.85a7.92,7.92,0,0,0-1.28-2.93,14.88,14.88,0,0,1,1.32,3.09,18.11,18.11,0,0,0,.76,1.77,3.47,3.47,0,0,0,.88,1.26c-.2-.79-.37-1.59-.62-2.36.7,1,1.43,2.2,2.19,3.44a18.25,18.25,0,0,1,1.89,4.1c.05-1.53-.31-.64-.46-2.93,0,2.06-3.17-7.19-2.76-4a10.41,10.41,0,0,0-.89-3.05,34.31,34.31,0,0,1-1.29-3.47c-.13.18.17,1.09-1-1.2a3.22,3.22,0,0,1-.43-.41l-.08-.15.05.13c-.08-.08-.09-.09,0,.05a4.67,4.67,0,0,1,.38,1.3,18.48,18.48,0,0,1-2-2.67c-.79-1.1-1.56-2.22-2-2.73-.73-1.34.54.41.27-.41-.46-.52-.93-1-1.43-1.52.26-.41-1.71-3.74.57-.94l-1.85-2.67a25.46,25.46,0,0,0-3.65-5c-.93-1.22-2.9-2.6-1.77-1.82-.59-.61-1.17-1.24-1.77-1.83l-1.85-1.75.05-.11a69.15,69.15,0,0,0-5.71-5.25,81.33,81.33,0,0,1-6.17-5.53c-.7-.48-1.42-1-2.23-1.53s-1.78-1.2-2.9-2.06l-.23-.63c-.91-.59-2.26-1.51-3.48-2.35a9.43,9.43,0,0,0-2.84-1.61,8.86,8.86,0,0,0-2.13-1.73c-.49-.32-1-.64-1.62-1s-1.22-.61-1.86-.91c-1.29-.59-2.61-1.23-3.86-1.73s-2.39-1-3.26-1.4l-.32.41a35.77,35.77,0,0,0-3.73-1.36l-2-.64c-.71-.2-1.46-.37-2.25-.57l.05.48a45.59,45.59,0,0,1-5-1.49l-3-1c-1-.29-2.11-.54-3.2-.76a5.83,5.83,0,0,1,2.18.44,20.49,20.49,0,0,0-3.91-1.15c-1.36-.24-2.74-.34-4.11-.45s-2.72-.13-4-.23a32.91,32.91,0,0,1-3.75-.52,10.22,10.22,0,0,1-2.89-.18h.3l-.5,0c-.52-.12-1.06-.22-1.65-.3.5.12,1,.21,1.39.28-.92,0-2.32,0-3.69.11l-.59-.49H277c-1.35-.19-1.08.22-.36.59a11.79,11.79,0,0,0-1.8.32c-1.11-.71-3.57.34-5.1-.33a24.49,24.49,0,0,1-3.83.74c-1.66.34-3.29.75-3.59,1.22-.06-.11-.46-.11.26-.21a14.59,14.59,0,0,0-4.32.75l-.75-.49-1.55.7-1.53.77c-2,.09-2.91.07-1.06-.84l-4,1.52a29.75,29.75,0,0,0-3.46,1.51l.08-.45c-1.4.48-3.44,1.73-4.39,1.7a22.93,22.93,0,0,0-3.91,1.13c-1.72.58-3.7,1.53-5.86,2.46-4.26,2-9,4.62-12.67,6.67,1,.06.1.45-1,1s-2.42,1.26-2.3,1.73c-.56.05-1.62.61-.64-.38-1.72,1.33-3,2.31-4.21,3.15a11.66,11.66,0,0,0-3,3c-.55.11.44-.91,0-.75a4.9,4.9,0,0,1-1.34,1.25c-.44.17.33-.59.78-1.13a21.41,21.41,0,0,0-1.9,1.86,5.92,5.92,0,0,0-.82,1.33,1.78,1.78,0,0,0,0,1.55,12.6,12.6,0,0,0-2.12,1.69,8,8,0,0,0-1.23,1.93c-.72.37-1.81,1.13,0-.92l-1.5,1.49-1.09,1.09L197.56,359c-1.42,1.65-2.68,3.21-2.45,3.5a8.38,8.38,0,0,0-1.54,2c-1.08,1.34-1.66,2.07-2.19,2.84s-1.07,1.51-2,2.91l.62-.71c-.14,1.51-1.4,2.43-2.76,4.79l0-.11a23.55,23.55,0,0,0-1.77,2.61,12.7,12.7,0,0,0-.59,1.17,9.53,9.53,0,0,1-.6,1.14c-.34.54-.83,1.33-1.64,2.65l.58-.08c.33.49-.4,1.63-1.37,3.09a22.87,22.87,0,0,0-2.55,5l.76-1.09a10.71,10.71,0,0,1-1.9,3.24,15.59,15.59,0,0,0-2.14,3.2c-.21.39.05-.7.2-1.29-2.18,4.76.38.84-.65,4.56-.52.59-.58-1.14-1.36,1.35a28.48,28.48,0,0,0-.84,4.66c-.11,1.08-.25,2.23-.44,3.32-.1.54-.21,1.07-.34,1.57a10,10,0,0,1-.39,1.39c.38-.73.76-1.44.67.36-.39,2.68-2,7.22-1.36,9.76-.09.35-.16.47-.23.48.06,1.06,0,2.76.09,4.36a18.58,18.58,0,0,0,.44,3.71,4.59,4.59,0,0,0-.53,2.85,30,30,0,0,0,.42,4.35c.25,1.49.44,2.91.57,4s.08,1.74-.3,1.78c.17,1.06.29,2.13.48,3.18l.62,3.16-.19-.13a22.56,22.56,0,0,0,1.07,4.38,14.81,14.81,0,0,0,1.06,2.32c.15.94-.17.31-.27.25a38.77,38.77,0,0,0,1.61,6,31,31,0,0,0,2.43,4.92l-.27.66c.67,1.18,2.56,8.39,6,13.28-.08,0-.22-.08-.51-.45,1.85,2.77,3.61,6.34,5.44,9.29s3.61,5.3,5.06,5.7c1,1.08,2.1,2,3.14,3.06-3.56-4.35,1.14.12-.14-1.82a15.51,15.51,0,0,1,2,2.68c.43.69.41,1-.52,0l-.21-.38c-1.43-.07,4.51,5.33,4,5.63a133.62,133.62,0,0,0,12.45,10.78,96.73,96.73,0,0,0,13.47,8.58c-.25-.4-.5-.78-.73-1.2,1.06.58,2.15,1.11,3.23,1.66.78.57.91,1.08-1.42-.09a8.21,8.21,0,0,0,4.21,1.44c4.56,2.29-2.17,0-.75.63l2,.79-.4-.27c.85.21,1.34.25,2,.4a26.44,26.44,0,0,1,2.87,1c1.8.83.8.78,1.52,1.08,0,0,.21.16,1.11.43,1.45.52,2.91,1,4.37,1.47L245,529.57c2,.36,4.1,1.3,2.27.06,1.33.92,5.43,2.15,9.48,2.93,2,.42,4,.66,5.64.93s2.83.34,3.3.48c.72,0,1.43,0,2.14,0s1.45,0,2.19,0c1.49,0,3.05.18,4.78.2-.86-.13-1.35-.79,1.62-.67-.55.64.82.87,2.63.9a25.4,25.4,0,0,1,5.31.39c-1.1-.23,1-.45,3-.68s3.75-.65,2-.86c2.48-.22.21.47,2.13.54,5.81-1.32,13-2,20-4.6.05-.2-1.2-.07.21-.82,1.33-.1,2.63-.34,4-.53a4.56,4.56,0,0,0,1.27-1,4.9,4.9,0,0,1,2.28-.9c-.4,0-1,0-.13-.41A79.8,79.8,0,0,0,338.27,515c6-4.36,11.54-9.24,17.11-14.12-1.62,1.22-.73.23.31-.88-.74.66-.31-.31-.62-.33,1.49-1.4,3-2.78,4.48-4.24a11.25,11.25,0,0,1,2-3.21c1-1.25,1.79-2.54,1.73-3l-1,1.65c.42-1.27-.42-.76-1.45-.09s-2.31,1.5-2.58,1.06a6.85,6.85,0,0,1-1.34,2c-.62.66-1.38,1.3-2.15,2a21,21,0,0,0-4.43,5c-.84.6.38-.84-.16-.6-.48,1.15-1.47,2.17-3.49,3.84l.15-.28c-1.29,1.31-2.54,2.27-3.64,3.22a40.5,40.5,0,0,1-3.31,2.5c-1.11.8-2.25,1.6-3.58,2.42s-2.77,1.79-4.55,2.8l.76.07a16.28,16.28,0,0,1-2.68,1.3c-1.34,1.7,4.22-2.61,3.08-1a10.86,10.86,0,0,0-2.73,1.23l-3.81,2.1a39.22,39.22,0,0,1-3.78,1.85,5.45,5.45,0,0,1-2.48.66c-2.48,1.09.95.17-1.53,1.27l-.78,0-.47.63c-1.65.68-2.66.59-2.8.4.41-.13,1.11-.51,1.53-.69a24.45,24.45,0,0,0-3.94,1.43,23.07,23.07,0,0,1-2.86,1.09c.84-.22,1.68-.42,2.52-.66-1.73.66-3.56,1.33-5.47,1.92s-3.87,1.15-5.86,1.57l-3,.7-2.94.59c-1.92.44-3.8.72-5.56,1.12l.57.15c-.67.13-1.25.25-1.75.33s-.93.11-1.31.14c-.76.06-1.33.07-1.91.08-1.17,0-2.41,0-5.41.16l.22-.06a18,18,0,0,1-4.46.31c1.52-.24-2.85-.54-.85-.81a36.07,36.07,0,0,0-4.19.24,12.37,12.37,0,0,1-2.73.52l-.87-.46c-.69.09-1.06.18-1.64.21a13.39,13.39,0,0,1-2.88-.17c2.49.08-1.82-.86,1-.84a27.69,27.69,0,0,0-4.07-.88c-1.19-.2-2.24-.35-3.2-.47a8.75,8.75,0,0,1-4.62-1.44c-1.53.13-.25.61,1.22,1s3.13.69,2.31.65c.63.3,0,.37-1,.29a20,20,0,0,1-3.39-.71,9.84,9.84,0,0,1-2.82-1.5,17.18,17.18,0,0,0-2-1.08c-.39-.19-.83-.38-1.33-.57s-1-.43-1.6-.65c.47.18.53.12,1,.3a13.76,13.76,0,0,0-2.68-1c-.47-.14-1-.29-1.44-.48a9.13,9.13,0,0,1-1.46-.79c-1.44.06-2.75-1.22-3.42-.65l4.35,1.67c-1.25-.42-2.54-.67-4-1.08a19.32,19.32,0,0,1-4.9-2.26,14.85,14.85,0,0,1,2.49.68c-1-.79-2.29-.91-3.33-1.77.34-.24,1.62.36,3.17,1.09.77.36,1.61.78,2.43,1.13a15.55,15.55,0,0,0,2.36.73,13.86,13.86,0,0,0-2.75-1.16c-.92-.36-1.5-.63-.68-.71a7,7,0,0,1-3.49-1.21,15.87,15.87,0,0,0-4.25-2.07l.43-.31a11.62,11.62,0,0,1-2.42-1.12l1.85.43c-2.62-1-4.29-3.16-6.57-4.47,2.26,1.58,2.45,1.86,2.27,2s-.72,0,.18.82c-6-3.37-2.62-3.15-8.75-7.65.83.61,2.88,2.61,1.46,1.8a19.25,19.25,0,0,1-3-3.11c-3.9-3.22.27.87-1.56-.31-.94-1.54-2-1.5-3.76-2.9l.32-.36c-.49-.53-.89-.92-1.22-1.23a7.61,7.61,0,0,0-.76-.69,1.47,1.47,0,0,0-.8-.38c-.39-.06-.73-.07-2.4-2.1l2,1.15c-.66-.62-1.35-1.22-2-1.87.26,0,.51.05.78.05a24.5,24.5,0,0,1-2.44-2.38,25.58,25.58,0,0,1-2-2.68c.15.74-.92.25-2.52-1.78-.81-1.58.93.54-1.23-2.4a5,5,0,0,1,2.13,2.53c.23,0,.74.46,1,.49-.94-1.64-2.72-3.84-3.49-4.9a9.24,9.24,0,0,1,.72,1.22c-.59-.65-1.19-1.3-1.77-2l-1.69-2c-.29-.8.19-.32.65.15-.59-.88-1.22-1.36-2-2.7.54.15.81-.12,2.15,1.64-1-1.31-2-2.7-2.9-4.08,0-.37-.83-2.46-.39-2a29.53,29.53,0,0,0-2.41-4.24,26,26,0,0,1-2.39-5,5,5,0,0,1-.68-1.19c-.29-.81-.55-1.61-.81-2.41l-.67-2.43c-.24-.82-.51-1.65-.81-2.51s-.6-1.77-1-2.72c0-.81,0-1.6.08-2.41-.87-3.08-.15,3.28-1.61-1.87-1.06-3.66.26-1.5.2-2.84-.34-.89-.84-2.11-1.25-3.55a16.69,16.69,0,0,1-.57-4.88C176.27,441.24,176.28,442.14,176.47,443.2Zm1.74-39.32c0,.38-.09,1-.18,1.51a2.67,2.67,0,0,1-.35,1.3C177.31,405.71,177.71,405.1,178.21,403.88Zm29.91-51.77a6.94,6.94,0,0,1-1.88,1.62A11.57,11.57,0,0,1,208.12,352.11Zm153.36,11.76-.07-.05C360.46,362.29,360.79,362.84,361.48,363.87Zm2,3.11c.27.27.31.21.28,0a7.17,7.17,0,0,1-1.26-1.62A3.86,3.86,0,0,0,363.52,367Zm-122,161.77-.63-.37C242.49,528.82,242,528.78,241.55,528.75Z" transform="translate(-171.04 -321.48)"/><path class="cls-1" d="M203.63,357.38a.57.57,0,0,1-.42.06C203.06,357.71,203.13,357.78,203.63,357.38Z" transform="translate(-171.04 -321.48)"/><path class="cls-1" d="M183.08,466.8l0,.12a.3.3,0,0,0,.12.08Z" transform="translate(-171.04 -321.48)"/><path class="cls-1" d="M317.73,335a7.11,7.11,0,0,1-1.21-.79C316.44,334.34,316.71,334.57,317.73,335Z" transform="translate(-171.04 -321.48)"/><path class="cls-1" d="M374.15,383.61c-.34-.72-.76-1.41-1.15-2.11a8.23,8.23,0,0,1,.8,2C373.88,383.41,373.84,382.92,374.15,383.61Z" transform="translate(-171.04 -321.48)"/><path class="cls-1" d="M378.12,403.91c.13.31.17.7.3,1l.2-.14C378.28,403.37,377.87,402.42,378.12,403.91Z" transform="translate(-171.04 -321.48)"/><path class="cls-1" d="M373.58,386.28c-.31.34.48,1.6,1.12,3.13l-.11-.28C375.3,389.37,374.49,387.79,373.58,386.28Z" transform="translate(-171.04 -321.48)"/><path class="cls-1" d="M374.85,389.76c.2.47.4.95.56,1.42C375.69,391.28,375.23,390.58,374.85,389.76Z" transform="translate(-171.04 -321.48)"/><path class="cls-1" d="M366.4,370.72c.34.73.7.14.8.61C368.12,371.79,363.83,367.22,366.4,370.72Z" transform="translate(-171.04 -321.48)"/><polygon class="cls-1" points="201.86 66.54 202.08 65.81 201.34 65.13 201.86 66.54"/><path class="cls-1" d="M367.46,376.32l1.16,2.34c.06-.07.27.19.5.53A17.25,17.25,0,0,0,367.46,376.32Z" transform="translate(-171.04 -321.48)"/><path class="cls-1" d="M369.12,379.19a16.47,16.47,0,0,0,1,1.84A21,21,0,0,0,369.12,379.19Z" transform="translate(-171.04 -321.48)"/><path class="cls-1" d="M371.31,384.83l-.22-.75-.79-1.66C370.64,383.22,371,384,371.31,384.83Z" transform="translate(-171.04 -321.48)"/><path class="cls-1" d="M350.33,354.09l-2.17-1.86c-.32-.07.17.54,1,1.22C349.72,353.83,350.53,354.51,350.33,354.09Z" transform="translate(-171.04 -321.48)"/><path class="cls-1" d="M355.2,361.3a3.4,3.4,0,0,1-.52-1.2l-.52.35Z" transform="translate(-171.04 -321.48)"/><path class="cls-1" d="M349.49,355.39c-.33-.08-3.3-2.45-.69,0C349.14,355.41,351.24,357.3,349.49,355.39Z" transform="translate(-171.04 -321.48)"/><polygon class="cls-1" points="143.31 10.32 143.99 10.56 144.26 9.58 143.31 10.32"/><path class="cls-1" d="M277.5,327.34c3.27.3.79-.63,3.76-.26.78-.23-2.43-.3-1.63-.49C277.62,326.82,276.58,326.66,277.5,327.34Z" transform="translate(-171.04 -321.48)"/><path class="cls-1" d="M279.63,326.59c.32,0,.66-.08,1-.14A7,7,0,0,0,279.63,326.59Z" transform="translate(-171.04 -321.48)"/><path class="cls-1" d="M362.49,492.44c.52-.53,1-1.12,1.46-1.68l-1.09,1C362.74,492,362.61,492.21,362.49,492.44Z" transform="translate(-171.04 -321.48)"/><path class="cls-1" d="M364.32,488.54l.84-.06.27-1.42A6.22,6.22,0,0,1,364.32,488.54Z" transform="translate(-171.04 -321.48)"/><path class="cls-1" d="M181.07,398.6l-.1-.2a4.75,4.75,0,0,0-.74,1.66Z" transform="translate(-171.04 -321.48)"/><polygon class="cls-1" points="4.94 105.05 4.96 104.56 4.36 105.47 4.94 105.05"/><path class="cls-1" d="M179,450.18c-.21-.94-.54-2-.68-3C178.77,449.24,178.37,450.59,179,450.18Z" transform="translate(-171.04 -321.48)"/><text class="cls-2" transform="translate(43.97 139.21) scale(0.73 1)">junia</text><path class="cls-3" d="M447,424.14c.12-.32-.32-.29-.38-.36C446.53,424.34,447.07,424.15,447,424.14Z" transform="translate(-171.04 -321.48)"/><polygon class="cls-3" points="275.31 108.24 275.18 108.09 275.31 109 275.31 108.24"/><path class="cls-3" d="M444.46,434.59c.84-.18.68-1.77,1.22-2.55l.21-.09-.4-.6A10.56,10.56,0,0,1,444.46,434.59Z" transform="translate(-171.04 -321.48)"/><path class="cls-3" d="M441.91,436.44c.33,0-.06.63.38-.52l-.12.07A4.8,4.8,0,0,1,441.91,436.44Z" transform="translate(-171.04 -321.48)"/><path class="cls-3" d="M442.17,436c.23-.48-.37.21,0,0Z" transform="translate(-171.04 -321.48)"/><path class="cls-3" d="M441.16,438.26l.11-.74c-.22.06-.54.59-.54.33C440.52,438.55,440.73,438.5,441.16,438.26Z" transform="translate(-171.04 -321.48)"/><path class="cls-3" d="M441.3,439.11l.08-.38C441.29,438.76,441.22,438.83,441.3,439.11Z" transform="translate(-171.04 -321.48)"/><path class="cls-3" d="M441.55,437.93l-.17.8c.15,0,.36.07.1-.35C441.63,438.53,441.53,438.3,441.55,437.93Z" transform="translate(-171.04 -321.48)"/><path class="cls-3" d="M441.85,437.59c.33-.28.65-.7.54.05C442.94,436.38,442.39,436.34,441.85,437.59Z" transform="translate(-171.04 -321.48)"/><path class="cls-3" d="M445,435.14l.41-.43,0-.53C445.42,434.45,444.81,435.08,445,435.14Z" transform="translate(-171.04 -321.48)"/><path class="cls-3" d="M438.61,441.88c.11.12.47,0,.66.08l.13-.54C439.17,441.59,438.82,442,438.61,441.88Z" transform="translate(-171.04 -321.48)"/><path class="cls-3" d="M439.27,442l-.19.81C439.48,442.18,439.44,442,439.27,442Z" transform="translate(-171.04 -321.48)"/><polygon class="cls-3" points="270.9 118.13 271.02 116.7 270.79 118.35 270.9 118.13"/><polygon class="cls-3" points="265.9 122.86 265.87 122.31 265.84 123.25 265.9 122.86"/><path class="cls-3" d="M435.83,446c0-.44-.65.07-.59-.32a4.73,4.73,0,0,0-.45,1.43A2.63,2.63,0,0,1,435.83,446Z" transform="translate(-171.04 -321.48)"/><path class="cls-3" d="M434.6,447.84a3.81,3.81,0,0,0,.19-.74A2.12,2.12,0,0,0,434.6,447.84Z" transform="translate(-171.04 -321.48)"/><path class="cls-3" d="M438.28,443.86a.91.91,0,0,0-.72.26h.53Z" transform="translate(-171.04 -321.48)"/><path class="cls-3" d="M438.11,444.11h0l-.41.53Z" transform="translate(-171.04 -321.48)"/><path class="cls-3" d="M438.33,443.79l-.05.07C438.33,443.86,438.36,443.85,438.33,443.79Z" transform="translate(-171.04 -321.48)"/><path class="cls-3" d="M440.54,441.23c0,.51-.34,1.49.48.87C440.94,441.66,440.48,442,440.54,441.23Z" transform="translate(-171.04 -321.48)"/><path class="cls-3" d="M439,443.78l.53-.67c-.11-.05-.33,0-.3-.27Z" transform="translate(-171.04 -321.48)"/><polygon class="cls-3" points="267.83 122.71 267.96 122.29 267.75 122.53 267.83 122.71"/><path class="cls-3" d="M435.83,447a3.11,3.11,0,0,1-.59,1.08,7.22,7.22,0,0,0,1-1.05C436.19,446.87,436.13,446.57,435.83,447Z" transform="translate(-171.04 -321.48)"/><path class="cls-3" d="M437,445.61l0,.08C437,445.67,437,445.65,437,445.61Z" transform="translate(-171.04 -321.48)"/><polygon class="cls-3" points="261.3 129.91 261.41 129.91 261.37 129.85 261.3 129.91"/><path class="cls-3" d="M436.37,447a1,1,0,0,0,.34-.74,6,6,0,0,1-.45.75C436.29,447.07,436.32,447.1,436.37,447Z" transform="translate(-171.04 -321.48)"/><path class="cls-3" d="M434,448.91a5,5,0,0,0,.58-.33C434.33,448.63,433.93,448.78,434,448.91Z" transform="translate(-171.04 -321.48)"/><path class="cls-3" d="M436.78,445.72a.07.07,0,0,1,0-.05C436.65,445.71,436.69,445.72,436.78,445.72Z" transform="translate(-171.04 -321.48)"/><path class="cls-3" d="M436.78,445.72a2.11,2.11,0,0,0-.07.54,3,3,0,0,0,.23-.57A.45.45,0,0,1,436.78,445.72Z" transform="translate(-171.04 -321.48)"/><path class="cls-3" d="M433.39,454.28c-.24-.33.17-1.29,1.07-1.62.36-.81-1-1.27-2-1.26.11.14.22.24-.18,1,.35-.06,1.66-1,1.43-.25-.63,1-.74.57-1.27.82.68,0-.47,1.55.21,1.88l.51-.91C433.24,454,433.12,454.41,433.39,454.28Z" transform="translate(-171.04 -321.48)"/><path class="cls-3" d="M433.56,450.27l.18-.3a2.6,2.6,0,0,1-1.18.52c-.25.54-.23.73-.16.85.4-.4.83-.78,1.19-1.2Z" transform="translate(-171.04 -321.48)"/><path class="cls-3" d="M434.72,448.78c.16.48-.23,1.24.45,1.15.63-.8.18-.78.42-1.36-1,1.32.12-.52-.82.23a4.71,4.71,0,0,1,.47-.74,7.79,7.79,0,0,1-.69.52h.05c.09,0,.13,0,.06,0s0,0,0,0a.48.48,0,0,1,.08.16c-.37.31-.13,0-.08-.16a.1.1,0,0,0,0-.05h0l-.86,1.4A7,7,0,0,0,434.72,448.78Z" transform="translate(-171.04 -321.48)"/><path class="cls-3" d="M441.34,443.34a.12.12,0,0,1-.12,0C441.21,443.46,441.22,443.51,441.34,443.34Z" transform="translate(-171.04 -321.48)"/><path class="cls-3" d="M440.75,443.79a.77.77,0,0,1,.17-.62c.29-.23.17.11.3.17,0-.27.18-.88-.39-.35v.13c-.48.49-1.38.92-1.37.79A2.63,2.63,0,0,0,440.75,443.79Z" transform="translate(-171.04 -321.48)"/><path class="cls-3" d="M437.85,446.5l-.63,1.25.71-.35-.2-.1C438.26,446.71,437.94,446.68,437.85,446.5Z" transform="translate(-171.04 -321.48)"/><polygon class="cls-3" points="261.04 129.88 260.83 129.44 260.76 130.44 261.04 129.88"/><polygon class="cls-3" points="259.87 131.19 259.63 130.86 259.49 131.37 259.87 131.19"/><path class="cls-3" d="M335.21,469.07l-.41.06A1.63,1.63,0,0,0,335.21,469.07Z" transform="translate(-171.04 -321.48)"/><path class="cls-3" d="M338.13,469.47l.1-.18C338.08,469.37,338,469.44,338.13,469.47Z" transform="translate(-171.04 -321.48)"/><path class="cls-3" d="M392.88,470.69c-.61-.29-1.29-.86-1.19-.41l.21.42A2.16,2.16,0,0,1,392.88,470.69Z" transform="translate(-171.04 -321.48)"/><path class="cls-3" d="M362.56,471.24l.15.16.47-.34Z" transform="translate(-171.04 -321.48)"/><path class="cls-3" d="M361.85,472.94l-.74-.41A3.36,3.36,0,0,0,361.85,472.94Z" transform="translate(-171.04 -321.48)"/><path class="cls-3" d="M319.17,468.38l-.49.43C319.42,468.83,319.11,468.59,319.17,468.38Z" transform="translate(-171.04 -321.48)"/><path class="cls-3" d="M416.76,463.65a6,6,0,0,0-1.23.34C416.18,463.94,416.8,464.05,416.76,463.65Z" transform="translate(-171.04 -321.48)"/><path class="cls-3" d="M337,464.65c-.27.05-.39.12-.39.22C336.83,464.83,337,464.76,337,464.65Z" transform="translate(-171.04 -321.48)"/><path class="cls-3" d="M414.25,464.63l.28,0a4.46,4.46,0,0,1,1-.62A1.48,1.48,0,0,0,414.25,464.63Z" transform="translate(-171.04 -321.48)"/><path class="cls-3" d="M261,472.3a.59.59,0,0,1-.14,0C260.89,472.34,261,472.33,261,472.3Z" transform="translate(-171.04 -321.48)"/><path class="cls-3" d="M243.71,475.53a3.44,3.44,0,0,1,.58-.47A1.57,1.57,0,0,0,243.71,475.53Z" transform="translate(-171.04 -321.48)"/><path class="cls-3" d="M425.56,457.25c.28-.25,0-.07,0,0Z" transform="translate(-171.04 -321.48)"/><path class="cls-3" d="M428.09,457.43a.25.25,0,0,0,0,.25A.28.28,0,0,1,428.09,457.43Z" transform="translate(-171.04 -321.48)"/><path class="cls-3" d="M412,468.65l0,0C412.06,468.7,412,468.69,412,468.65Z" transform="translate(-171.04 -321.48)"/><path class="cls-3" d="M426.12,457.06a2.73,2.73,0,0,0-.45.19A3,3,0,0,0,426.12,457.06Z" transform="translate(-171.04 -321.48)"/><path class="cls-3" d="M425.94,456.94l.28-.17C426.21,456.69,426.14,456.68,425.94,456.94Z" transform="translate(-171.04 -321.48)"/><path class="cls-3" d="M425.17,457.59a3.69,3.69,0,0,1,.5-.34c-.07,0-.11,0-.11,0Z" transform="translate(-171.04 -321.48)"/><path class="cls-3" d="M291.9,467.54s0,0-.08,0C291.44,467.7,291.61,467.66,291.9,467.54Z" transform="translate(-171.04 -321.48)"/><path class="cls-3" d="M383,475.42l0,0-.06,0Z" transform="translate(-171.04 -321.48)"/><path class="cls-3" d="M381.55,475.68a1.26,1.26,0,0,1,1.41-.3l-.42-1.27Z" transform="translate(-171.04 -321.48)"/><path class="cls-3" d="M328.2,468.5l.92.47c-1.2.54-2,.25-1.16.87.24-1.34,3.71.17,4-1.15l.6.35c-.18,0-.22,0-.4,0,1.16.78,1-.9,2.58-.52.54.18.9.42.5.53l1.27-.17c.35.07.24.29-.12.22l1.89.13,0,0a7.51,7.51,0,0,1,1.26-.5c.45.26-.26.1-.16.29l1.09-.17c.37.41-.54.62-1.25.46.77,1.49.91-.21,2.88.88l-1,0c.52.85,1.32.69,2.34,1.35-.22-.29-2-1.56-.84-1.71a1.81,1.81,0,0,0,1.36.1c-.07.48.54.46,1.29.55l-.16.63c.83-.06.82-.39,1.34-.59a1.36,1.36,0,0,1,1.12,1.18c1.42.35-.85-1,.87-.78a7,7,0,0,0,3.52.21c.8.37-.22.36.05.6l.83-.37c.18,0,.1.18.05.26.66-.09.17-.62,1.18-.62.38-.65,1.83,1.37,3.19.8.27.23-.21.36-.16.62a10.86,10.86,0,0,0,3-.59l1.1.61c-.78-.61.42-1,1.45-1.29-.27-.28-.49-.52-.65-.65l1.59-.08c.16.14,0,.33-.32.55l.31-.11c.51.32.16.65-.29.93l-.49-.48c-.44.32-.86.68-.85,1.07a1.32,1.32,0,0,1,.54-.09c-.12.09-.2.17-.16.24s.22,0,.5-.15l.23.76.13-.27,2,.76c1.56-.48,3-1.34,5.29-1.33-.63.44-.23.83-.34,1.44-.54-.74-1.83,0-3-.27.61.17.43.44.26.52l2.21-.3c-.11.49.41.43.94.72-.3-1.05,1.67-.44,2.58-.67,0,.34-.23.66-1.29.46,1.09.88,1.65-1,2.73-.24-.26,0-.39-.09-.51.07.63-.23,2.09.17,1.71.42l-.26,0c1.72.28,5.29.45,5.59-.42a5,5,0,0,1-.4,1.18c1.09-.91,2.16-1.83,3.19-2.74-.29.72.72,2.5-.74,2.86a2.82,2.82,0,0,0,1.81,0c-.28-.1-.68-1.05-.3-1.12,1.05.81.73.44,2,1.12-.42-.15.05-1.3.71-1.26-.1.17.07,1.13-.18,1.25.56-.39,1.11-.75,1.65-1.14-.41.22-.05.95.34,1.25-.18-.21,1.46-.06,1.9-.19l-.72-.22c1.91,0,1.77-1.63,3.6-1.79-.2.26-.42,1.49.55,1.52.38-.65,1.61-2.9,3.1-3.63l.35.28,1.15-.58a17.63,17.63,0,0,1-3.63,4c.74.18.24.36,1.3.21.42.27-.52.53-.83.58.84,0,1.68-.05,2.52-.14-.21-.65,1.79-1,1.59-1.53l-2.56,1.15c-.19-.65,1.25-2.15,3-2.33.49.19-.1,1.23,0,1.45a2.25,2.25,0,0,1,.88-.45,1.94,1.94,0,0,1,.87-.2l-.65.54c1,0,1.36-1.26,2.66-.92.41-.05,1.42.55,1.38.14a4.51,4.51,0,0,1-1.32-3.5c.07,0,.62.1,1.2.13a6.69,6.69,0,0,1,1.51.22c.81.36-.51,1.67.18,2,0-.18.25-.51.37-.63.45,0,0,.6.86.23-.07-.7,1.81-.54.24-.69.78-.48,1-.13,1.94-.56-.47-.29.33-1.76,1.06-2.28,0,.18.29.32.42.37a32,32,0,0,0,4.24-1.54c.21.07,1-.12.86.3a1.94,1.94,0,0,1,.72-.78c1.2.06-1,.61,0,.89-.07-.2.18-.46.5-.77s.7-.67,1-1c-.5-.41-1.53.79-2.11,1.32a1.62,1.62,0,0,1,.2-1.48,6.91,6.91,0,0,1,1.43-1.87c1.07-.88.79.17.94-.06a3,3,0,0,0,1.66-1.75,2.07,2.07,0,0,1,1.5-1.36c1,0,.65.85,1,1.06-.82.82-1.63.72-2.25,1.17l.92-.33a2.43,2.43,0,0,1-1.18,1,7.69,7.69,0,0,0,2.43-1.33l1.64-1.1a12.86,12.86,0,0,1,1.51-.94c.18-.37.55-.91.18-.89l-.45.46c-.73,0,.56-1.22-.2-.87a6.2,6.2,0,0,1,1.95-2.34l.57.31c-.14-.11-.81.26-.94.63.18-.54,1.91-.63,1.77-1.6l-.9.26a6.06,6.06,0,0,1,1.63-2.55c-.75-.1-.12.21-1.16.21,1.08.2-2,1.76-.59,1.75-1.12-.11-1.19.65-2.4.74.15.14.52.08-.22.54a1.17,1.17,0,0,1,0,.26l-.06,0,.06,0s0,.06,0,0a1,1,0,0,1,.54,0c0,.62-1.15,1.49-1.37,2-.47.25,0-.32-.33-.32l-.33.73c-.32-.3-1.53.26-.73-.71a9,9,0,0,1-.89.63,3.44,3.44,0,0,0-1.8,1.05c-.48.21-.8,1.16-.62.61-.41.41-.85.78-1.3,1.15l-.07-.09c-1.47.81-2.63,2.47-4.77,2.58a5.75,5.75,0,0,1-1.83,1.06l-.33-.28c-.62.4-2.17.47-2.3,1-.56-.35-1.37,0-2.24.31a16.79,16.79,0,0,1-2.4.91l.1.5c-.83.28-1.61.61-2.63,1.06l.18.42c-.85.56-2.44.33-3.92.58.07-.18.45-.2.74-.15a3.73,3.73,0,0,0-2.76.37,3.74,3.74,0,0,1-2.62.43,1.23,1.23,0,0,1-1,.11l.1,0-.17,0c-.18-.06-.37-.13-.58-.18a2.21,2.21,0,0,0,.49.19,10.45,10.45,0,0,0-1.24.29l-.23-.47-.11,0c-.47-.15-.35.25-.08.6a2.51,2.51,0,0,0-.61.32c-.42-.76-1.22.33-1.77-.47-.3.45-2.36.36-2.61,1.2,0-.11-.16-.16.1-.17a2.45,2.45,0,0,0-1.54.05l-.22-.61c-.38.28-.77.56-1.17.81-.7-.4-1-.63-.27-1.07-1.7.65-1.37.21-2.84.87l.09-.39c-.51,0-1.37.46-1.66.11-.54-.42-2-.53-3.6-.72a20.73,20.73,0,0,1-4.92-1c.41,1.24-1.3-.7-1.53.18-.14-.29-.52-.5,0-.68-1.53.08-2.18-.76-3.32-.16-.13-.3.38-.35.25-.54-.13,0-.51.17-.64,0s.25-.19.51-.28a1.62,1.62,0,0,0-2.06,1.4,1.3,1.3,0,0,0-1.76-.09c-.23-.3-.63-.65.34-.58-.53-.13-3.21-.92-3.37-.31-.14-.19-.74-.18-.9-.13a21.68,21.68,0,0,0-2.48-.48l.31.17c-.6.67-1,0-2-.09l0-.07c-2.09-.94-1,.09-3-.91l0,.49c-.38,1-1.8-.93-3.13-.76l.41.35c-.74.22-1.68-1.72-2.36-2-.13-.11.27-.1.49-.13-1.72-.9-.34.58-1.71.5-.2-.37.46-.79-.44-1-.41-.36-2.82.66-4-.16.24.3.47.6-.18.7-1-.06-2.49-1.35-3.47-.64a.27.27,0,0,1-.15-.22c-.77.12-2.45,0-2.95.45-.25-.86-1.44-.78-2.52-.67s-2.09.28-2-.48c-.77,0-1.53-.07-2.3-.09l.07-.15a3.18,3.18,0,0,0-2.54.48c-.33-.12-.08-.25,0-.33-2.13-.4-2.36-.37-4.17.35l-.17-.5c-.49.26-3.09-.86-5.2-.3a.37.37,0,0,1,.23-.22c-2.36.56-5.68-1.35-6.52.47l-1.54.48c2,.09-.29.79.55,1.07-.79.13-2.05-.49-1.09-.61l.16.09c.33-1-2.51-.27-2.47-.9-4,.17-7.84-.15-11.54,0l.47.7-1.29,0c-.35-.15-.49-.55.43-.57-.51-.39-1.52.44-1.54.6-1.82-.18.65-.9.1-.88l-.75.11.18.07c-.59.34-.63.66-1.73.69-.71-.1-.39-.42-.67-.43,0-.05-.09-.07-.42,0l-1.63.05.69.53c-.7.33-1.53.07-.73.67-1.17-.93-6.07.08-6.78-.18a7.45,7.45,0,0,1-3.21.65c.32.09.57.72-.5.74.25-1.36-2-.39-3-1.23.84.54-3,.53-1.7,1.28-.9,0-.11-.49-.83-.71-2.05.81-4.74.39-7.34,1.13,0,.18.5.35,0,.73-.52-.19-1-.35-1.57-.53-.5.22-.22,1.1-1.31.75.17.11.42.27.09.41a24,24,0,0,0-7.61,2.47,75.26,75.26,0,0,1-7.54,3.41c.82-.15.42.17,0,.5.35-.15.24.35.44.5-.75.25-1.45.59-2.19.89.07.73-1.8,1.68-1.53,2.3l.43-.58c-.15,1.19,2.07.3,2.6,1.16.1-.63.82-.81,1.55-1.05s1.52-.48,1.83-1.45c.4,0-.08.42.2.5.11-.57.47-.94,1.36-1.22l0,.14a16.29,16.29,0,0,1,1.47-.85c.47-.2.91-.36,1.37-.52.89-.33,1.89-.54,3.26-1l-.37-.36a2.22,2.22,0,0,1,1.09-.06c.21-.46-.2-.32-.63-.19s-.85.3-.69-.19c.55.26,1.59-.08,2.61-.42s2-.56,2.44-.12c.92-.27-.42-.45.51-.72l.32.22.14-.43a1,1,0,0,1,1.12.43,2.45,2.45,0,0,0-.56.23c.87.15,2.2-.67,2.51-.6-.32,0-.64,0-1,0,2.51-.86,5.76-1,8.24-2l-.23-.2c1.92-.65,1.6,0,3.74-.38l-.07.06a3.23,3.23,0,0,1,1.57-.47c-.52.31,1.08.4.39.76,2.1-.63,1-.44,2.38-1.39l.36.34a2.24,2.24,0,0,1,1.57-.73c-.88.38.73.51-.24,1,2.35.63,3.35-1.07,4.49,0,1-1.1-2-.43-1.46-.69-.51-.3.82-.83,1.55-.78s1.34,1.22,3.18,1.08c-.18,0-.19.08-.38.09.71.21,1.33-.44,2.21-.07.43-.65,1.1,0,1.18-.84l-1.68.3c.95-.27,1.79-1.26,3.4-.9a2.85,2.85,0,0,1-.89.54c.48.2.88-.21,1.38,0-.09.8-2,.29-3,1,.52.3,1.91-.7,1.45.19.67-1.14,1.82,0,3-.88l-.06.48a2.56,2.56,0,0,1,1-.34l-.62.65c1-.58,2,.35,2.92,0-2,.12-.48-.55-1.36-.85,2.47-.77,1.5,1.16,4.28.81-.37.08-1.43-.22-.85-.47a4.2,4.2,0,0,1,1.59.46c1.84-.17-.31-.48.47-.8.65.56.9-.27,1.71-.48l0,.48c2.12.23.53-1,2.44-.7l-.78.69,1-.2-.19.55a3.63,3.63,0,0,1,2.46-.2c-.25-.34.12-.88,1.06-.91.64.28-.35.46,1,.38-.29.3-.61.69-1.2.25-.05.16-.29.31-.34.46a5,5,0,0,0,2.2,0,1.45,1.45,0,0,1-.52-.1l1.91-.68c.3.18.06.33-.17.47a9.07,9.07,0,0,1,1.22-.32c-.14.39-.11.8-.91,1l1.82-.43c.12.17.93.48.69.62,1,.24,2.49-.74,3.82-.39a.92.92,0,0,1,.49-.19c1.26.12,2.35.66,3.86.19l.8.74c1.17-.09-1.09-1,.86-1.1,1.39-.14.48.63.95.85a3.4,3.4,0,0,1,3.15-.27A5.32,5.32,0,0,1,328.2,468.5Zm14.31,1.41c-.29,0-.89.28-1.05,0C341.86,469.38,342.07,469.67,342.51,469.91Zm22,2.59c-.24.12-.55,0-.88-.24A1.75,1.75,0,0,1,364.54,472.5Zm58-12.48v0C421.94,460.25,422.16,460.19,422.56,460Zm1.16-.54c.06-.13,0-.18-.07-.2,0,.15-.23.31-.51.47C423.28,459.8,423.47,459.78,423.72,459.48Zm-136.15,5.08.26.11C287.27,464.85,287.42,464.71,287.57,464.56Z" transform="translate(-171.04 -321.48)"/><path class="cls-3" d="M361.94,472.75a.52.52,0,0,1-.08-.28C361.74,472.53,361.72,472.62,361.94,472.75Z" transform="translate(-171.04 -321.48)"/><path class="cls-3" d="M319.26,468.3h0a.2.2,0,0,0-.05.09Z" transform="translate(-171.04 -321.48)"/><path class="cls-3" d="M407.64,472.28a1.23,1.23,0,0,1-.58-.07C407.08,472.33,407.23,472.38,407.64,472.28Z" transform="translate(-171.04 -321.48)"/><path class="cls-3" d="M428.32,454.59l-.51.63a1.35,1.35,0,0,1,.64-.37C428.36,454.78,428.14,454.76,428.32,454.59Z" transform="translate(-171.04 -321.48)"/><path class="cls-3" d="M435.44,451.6c0-.13.16-.2.19-.33l-.19-.12C435.12,451.55,435,452,435.44,451.6Z" transform="translate(-171.04 -321.48)"/><path class="cls-3" d="M430,455.25c.33.26.62-.19,1-.64l-.08.07C430.6,454.16,430.28,454.71,430,455.25Z" transform="translate(-171.04 -321.48)"/><path class="cls-3" d="M431,454.51a4.44,4.44,0,0,1,.37-.38C431.29,453.91,431.24,454.26,431,454.51Z" transform="translate(-171.04 -321.48)"/><path class="cls-3" d="M424.82,458.27c.27-.08-.19-.51,0-.47C424.77,457.2,423.84,459.41,424.82,458.27Z" transform="translate(-171.04 -321.48)"/><polygon class="cls-3" points="260.19 134.43 259.69 134.2 259.73 134.72 260.19 134.43"/><path class="cls-3" d="M427.53,458.7l.81-.48c-.06-.05,0-.17.09-.29C428,458.28,427.41,458.6,427.53,458.7Z" transform="translate(-171.04 -321.48)"/><path class="cls-3" d="M428.43,457.93a1.77,1.77,0,0,0,.5-.56A4.15,4.15,0,0,0,428.43,457.93Z" transform="translate(-171.04 -321.48)"/><polygon class="cls-3" points="259.35 135.4 259.07 135.51 258.56 135.93 259.35 135.4"/><path class="cls-3" d="M419.28,464.37l-.8.64c0,.2.29.15.58-.1S419.5,464.43,419.28,464.37Z" transform="translate(-171.04 -321.48)"/><path class="cls-3" d="M422.65,463.9a.91.91,0,0,1-.58-.06l.31.54Z" transform="translate(-171.04 -321.48)"/><path class="cls-3" d="M420.15,465.61c0,.2-1,1.21.07.49C420.22,465.9,421.05,465.25,420.15,465.61Z" transform="translate(-171.04 -321.48)"/><polygon class="cls-3" points="234.57 149.67 234.81 149.58 234.49 148.62 234.57 149.67"/><path class="cls-3" d="M392.37,475.94c1.27.16.24-.64,1.4-.45.26-.27-.94-.15-.66-.39C392.38,475.43,392,475.28,392.37,475.94Z" transform="translate(-171.04 -321.48)"/><path class="cls-3" d="M393.11,475.1a2.53,2.53,0,0,0,.36-.19A1.19,1.19,0,0,0,393.11,475.1Z" transform="translate(-171.04 -321.48)"/><polygon class="cls-3" points="69.98 155.59 69.23 156.02 69.86 155.89 69.98 155.59"/><path class="cls-3" d="M240.39,478.72l-.6-.32.06.76C240,479,240.19,478.72,240.39,478.72Z" transform="translate(-171.04 -321.48)"/><path class="cls-3" d="M344.43,471.55l.08-.15c-.09-.18-.27-.23-.62-.31Z" transform="translate(-171.04 -321.48)"/><polygon class="cls-3" points="163.14 148.1 163.32 148.13 163.05 147.51 163.14 148.1"/><path class="cls-3" d="M325.45,469.58c.35,0,.78-.06,1.13,0C325.8,469.62,325.4,468.84,325.45,469.58Z" transform="translate(-171.04 -321.48)"/></svg>