<svg id="Layer_1" data-name="Layer 1" xmlns="http://www.w3.org/2000/svg" viewBox="0 0 271.96 261.44"><defs><style>.cls-1{fill:#d7ba37;}.cls-2{fill:#bfa700;}.cls-3,.cls-4,.cls-6{fill:none;}.cls-3,.cls-6{stroke:#d65c1b;}.cls-3,.cls-4{stroke-linecap:round;stroke-linejoin:round;}.cls-3{stroke-width:0.25px;}.cls-4{stroke:#95621a;}.cls-4,.cls-6{stroke-width:0.5px;}.cls-5{fill:#95621a;}.cls-7{fill:#d65c1b;}</style></defs><path class="cls-1" d="M433,435.93c-.57,1,0,.83,0,1C433.76,435.23,432.84,435.92,433,435.93Z" transform="translate(-194.44 -248.55)"/><polygon class="cls-1" points="245.62 170.1 245.67 170.47 246.21 167.75 245.62 170.1"/><path class="cls-1" d="M445.09,402c-1.1,1.43-1.34,6.16-2.57,9l-.31.44.14,1.51c.49-1.83,1.08-3.91,1.5-5.9S444.69,403.28,445.09,402Z" transform="translate(-194.44 -248.55)"/><path class="cls-1" d="M448.27,393.1c-.36.54.06-2-.41,2.16a2.27,2.27,0,0,1,.13-.38C448,394.5,448.12,394,448.27,393.1Z" transform="translate(-194.44 -248.55)"/><path class="cls-1" d="M448,394.88c-.26,1.83.41-1.17,0,0Z" transform="translate(-194.44 -248.55)"/><path class="cls-1" d="M448.88,386.36v2.46c.22-.49.47-2.66.51-1.84C449.5,384.46,449.29,385,448.88,386.36Z" transform="translate(-194.44 -248.55)"/><path class="cls-1" d="M448.55,384c0,.42,0,.84,0,1.26A2,2,0,0,0,448.55,384Z" transform="translate(-194.44 -248.55)"/><path class="cls-1" d="M448.52,388l.05-2.69c-.15.35-.39.36,0,1.23C448.34,386.28,448.49,386.82,448.52,388Z" transform="translate(-194.44 -248.55)"/><path class="cls-1" d="M448.27,389.46c-.27,1.35-.65,3.07-.57.63-.24,2.3-.28,3.3-.12,3.15A12,12,0,0,0,448.27,389.46Z" transform="translate(-194.44 -248.55)"/><path class="cls-1" d="M444.54,401c-.18.58-.36,1.15-.59,1.71l-.14,1.57a13.27,13.27,0,0,1,.51-1.95C444.53,401.58,444.66,401,444.54,401Z" transform="translate(-194.44 -248.55)"/><path class="cls-1" d="M449.64,371.16c-.16-.15-.37.83-.55,1,.09.6.15,1.2.2,1.8C449.43,373.05,449.42,371.29,449.64,371.16Z" transform="translate(-194.44 -248.55)"/><path class="cls-1" d="M449.09,372.18l-.39-2.68C448.78,371.9,448.93,372.34,449.09,372.18Z" transform="translate(-194.44 -248.55)"/><path class="cls-1" d="M447.79,383.53c.14,1.48.1,3,.16,4.43,0-1.76,0-3.52-.13-5.27Z" transform="translate(-194.44 -248.55)"/><path class="cls-1" d="M448.88,360.86c.18.49.33,1,.5,1.49L449,361l-.46-1.31Z" transform="translate(-194.44 -248.55)"/><path class="cls-1" d="M447.79,354.09c.51,1.07.19-1.62.6-.47a32.94,32.94,0,0,0-1.46-4.7A24.55,24.55,0,0,1,447.79,354.09Z" transform="translate(-194.44 -248.55)"/><path class="cls-1" d="M446,346.66c.25.72.55,1.46.89,2.26A20.78,20.78,0,0,0,446,346.66Z" transform="translate(-194.44 -248.55)"/><path class="cls-1" d="M448.47,364.93a5.08,5.08,0,0,0,.23-2.15l-.33,1.1Z" transform="translate(-194.44 -248.55)"/><path class="cls-1" d="M448.36,363.92v0c-.09-1.14-.16-1.94-.19-2.28Z" transform="translate(-194.44 -248.55)"/><path class="cls-1" d="M448.49,365.2l0-.27A.26.26,0,0,0,448.49,365.2Z" transform="translate(-194.44 -248.55)"/><path class="cls-1" d="M448.42,376.55c-.24-1.58-.49-4.83-.86-1.68C447.85,376,448.06,374.18,448.42,376.55Z" transform="translate(-194.44 -248.55)"/><path class="cls-1" d="M448.08,366.55c.06.94,0,1.89.06,2.84.11-.06.25-.58.4.19C448.39,368.57,448.27,367.55,448.08,366.55Z" transform="translate(-194.44 -248.55)"/><polygon class="cls-1" points="253.37 116.62 253.64 118 253.58 116.94 253.37 116.62"/><path class="cls-1" d="M446.71,351.54a18.18,18.18,0,0,1-.54-1.88c-.18-.66-.36-1.35-.56-2.09.34,1.6.6,3.27.9,4.84C446.69,352.61,447.06,353.26,446.71,351.54Z" transform="translate(-194.44 -248.55)"/><path class="cls-1" d="M447.63,357.54l-.06-.27C447.56,357.44,447.57,357.58,447.63,357.54Z" transform="translate(-194.44 -248.55)"/><path class="cls-1" d="M441.33,333.22v.25l.09,0Z" transform="translate(-194.44 -248.55)"/><path class="cls-1" d="M446.48,352.69a9.67,9.67,0,0,0,.66,2.59c-.22-.9-.43-1.85-.63-2.87C446.43,352.32,446.39,352.31,446.48,352.69Z" transform="translate(-194.44 -248.55)"/><path class="cls-1" d="M444.81,342.65c.1.63.22,1.35.32,2.11A6.31,6.31,0,0,0,444.81,342.65Z" transform="translate(-194.44 -248.55)"/><path class="cls-1" d="M447.63,356.84l0,.18C447.71,356.61,447.67,356.67,447.63,356.84Z" transform="translate(-194.44 -248.55)"/><path class="cls-1" d="M447.63,356.84c-.15-.61-.33-1.09-.49-1.56.14.73.28,1.41.43,2A2.62,2.62,0,0,1,447.63,356.84Z" transform="translate(-194.44 -248.55)"/><path class="cls-1" d="M437.13,330c.22,0,.71.73,1.22,1.78a14.06,14.06,0,0,1,.75,1.77,15.86,15.86,0,0,1,.51,2c1.16,2.44,1.82.38,1.72-2.14-.2,0-.29,0-1.57-2.5.24,1,1.65,6,.54,3.9a25.3,25.3,0,0,1-1.06-2.93,15.44,15.44,0,0,0-.32-1.7c.05.8-.55-.23-1.21-1.32s-1.46-2.21-1.61-1.7c.54.93,1,1.9,1.47,2.86C437.49,330.17,436.89,329.17,437.13,330Z" transform="translate(-194.44 -248.55)"/><path class="cls-1" d="M443,338.56l.37,1.1c-.29-1.3-.45-2.23-.74-4-.81-1.76-1.08-2.09-1.25-2.17.59,1.81,1.25,3.6,1.78,5.42Z" transform="translate(-194.44 -248.55)"/><path class="cls-1" d="M444.84,344.66c-.6-.78-1.61-3.37-1.56-1.62.93,3.24.93,2.2,1.61,4.11-1.39-5.29.61,1.48-.09-2.43.33,1,.58,2,.81,2.85-.18-1-.34-1.91-.48-2.81v.16h0c0,.25,0,.33-.05.06a.81.81,0,0,1,0-.11.56.56,0,0,1-.22-.2c-.29-1.56.05-.27.22.2,0,0,.05.05.08.05v0c-.49-1.77-1.16-3.49-1.73-5.23C443.66,340.8,444.14,342.18,444.84,344.66Z" transform="translate(-194.44 -248.55)"/><path class="cls-1" d="M446.59,372c0-.17.06-.16.1-.18C446.62,371.47,446.57,371.34,446.59,372Z" transform="translate(-194.44 -248.55)"/><path class="cls-1" d="M446.75,369.76a6.42,6.42,0,0,1,.28,2c-.08,1.11-.21,0-.34.06.15.77.39,2.7.53.27l-.08-.38a19.17,19.17,0,0,1,.53-4.66A8.69,8.69,0,0,0,446.75,369.76Z" transform="translate(-194.44 -248.55)"/><path class="cls-1" d="M446.32,357.08c-.26-1.5-.64-3-1-4.44l.06,2.33.2-.15C445.94,357.37,446.08,356.79,446.32,357.08Z" transform="translate(-194.44 -248.55)"/><path class="cls-1" d="M441.36,332.65l.62.41c-.47-.77-1-1.5-1.55-2.24Z" transform="translate(-194.44 -248.55)"/><path class="cls-1" d="M439.09,327.13l.45.05c-.28-.46-.58-.9-.87-1.35Z" transform="translate(-194.44 -248.55)"/><path class="cls-1" d="M208.89,376.79l.11,1.29C209,377.47,208.93,377.08,208.89,376.79Z" transform="translate(-194.44 -248.55)"/><path class="cls-1" d="M209.17,367.43l-.18-.25C209.07,367.63,209.14,367.81,209.17,367.43Z" transform="translate(-194.44 -248.55)"/><path class="cls-1" d="M322.77,253.07c-2-.28-4.21-.75-3.95-.31l.63.4A20.55,20.55,0,0,1,322.77,253.07Z" transform="translate(-194.44 -248.55)"/><path class="cls-1" d="M236.48,296.29l.46-.35.58-1.22C237.2,295.19,236.82,295.7,236.48,296.29Z" transform="translate(-194.44 -248.55)"/><path class="cls-1" d="M237,298.49l-1.83,1.73C235.58,299.86,236.17,299.3,237,298.49Z" transform="translate(-194.44 -248.55)"/><path class="cls-1" d="M220.82,426.06c.34.4.67.79,1,1.16C220.83,425.12,221.1,426.13,220.82,426.06Z" transform="translate(-194.44 -248.55)"/><path class="cls-1" d="M402.15,279.32c-1.24-1.16-2.28-2-3.21-2.77C400.42,278,401.5,279.28,402.15,279.32Z" transform="translate(-194.44 -248.55)"/><path class="cls-1" d="M204.29,373c.08.83.17,1.18.26,1.16C204.48,373.32,204.4,372.84,204.29,373Z" transform="translate(-194.44 -248.55)"/><path class="cls-1" d="M394.92,273.76l.68.59a32.22,32.22,0,0,1,3.34,2.2A14.7,14.7,0,0,0,394.92,273.76Z" transform="translate(-194.44 -248.55)"/><path class="cls-1" d="M378,481.14l.4-.14C378.43,480.93,378.26,481,378,481.14Z" transform="translate(-194.44 -248.55)"/><path class="cls-1" d="M423,450c-.32.45-.86,1.17-1.37,1.85C421.89,451.51,422.31,451,423,450Z" transform="translate(-194.44 -248.55)"/><path class="cls-1" d="M427.69,306c.74,1,.17.13,0,0Z" transform="translate(-194.44 -248.55)"/><path class="cls-1" d="M429.59,312.09c-.19-.2-.35-.33-.45-.31A1,1,0,0,1,429.59,312.09Z" transform="translate(-194.44 -248.55)"/><path class="cls-1" d="M382.84,269.66l-.09-.05C383,269.86,383,269.81,382.84,269.66Z" transform="translate(-194.44 -248.55)"/><path class="cls-1" d="M428.58,307.73c-.22-.43-.48-.92-.78-1.43C427.92,306.53,428.15,307,428.58,307.73Z" transform="translate(-194.44 -248.55)"/><path class="cls-1" d="M428.61,307.4l.56,1C429.32,308.45,429.28,308.3,428.61,307.4Z" transform="translate(-194.44 -248.55)"/><path class="cls-1" d="M426.64,304.61c.43.58.81,1.14,1.16,1.69-.12-.22-.16-.32-.11-.27Z" transform="translate(-194.44 -248.55)"/><path class="cls-1" d="M281.17,485.16l.23.14C282.61,485.62,282.1,485.43,281.17,485.16Z" transform="translate(-194.44 -248.55)"/><path class="cls-1" d="M291.73,262.78l.13-.06-.18,0Z" transform="translate(-194.44 -248.55)"/><path class="cls-1" d="M287.69,264.46a9.07,9.07,0,0,1,4-1.71c-.58-.25-1.18-.53-1.76-.77Z" transform="translate(-194.44 -248.55)"/><path class="cls-1" d="M211.41,399.05l-.2-3.08c1.32,3.5,1.63,6.12,1.61,3.22-.35,0-.68-.77-1-1.87a30.51,30.51,0,0,1-.83-4c-.23-1.46-.46-2.92-.71-4s-.46-1.89-.81-2l.09-2c.05.58.13.66.17,1.23.27-3.94-1.23-2.82-1.29-7.91.05-1.78.29-3,.44-1.81l-.33-3.93c0-1.15.26-.86.23.28,0-2,.11-4,.16-6l0,0a34.89,34.89,0,0,1-.34-3.79c.35-1.51.07.78.28.4,0-1.11,0-2.23,0-3.35.27-.65.39-.28.4.53a21,21,0,0,1-.15,3.23,5.07,5.07,0,0,0,.77-3.31,20.06,20.06,0,0,1,.93-6c-.14,1-.2,2.08-.31,3.12a13.77,13.77,0,0,0,1.12-3.27c.34-1.26.68-2.7,1.26-4.37-.4.74-2.57,6.68-2.2,3.09a17.86,17.86,0,0,0,.74-4.24c.48.09.83-1.77,1.38-4.08l.58.32a15.91,15.91,0,0,0,.27-2.33,8.88,8.88,0,0,1,0-1.6c.89-2.72,1.53-3.13,2.17-3.62,1.64-4.25-1.83,2.71-.1-2.42.38-.87.71-1.69,1-2.5s.64-1.56.93-2.37c.59-1.61,1.1-3.36,2-5.49,1.35-2.32.15.59.73-.2l.56-2.36c.27-.51.32-.27.35-.15.73-1.87-.5-.44.84-3.3-.09-.53.87-1.87,2.1-3.46a23.88,23.88,0,0,0,3.41-5.33c.69-.7.06.59.44.49l2.33-4.26c.49-.91.95-1.69,2-3.67.86-.91,1.72-1.83,2.65-2.68-2.15,1.81-.32-1.24,1.34-3.93-.81.6-1.51,1.12-1.95,1.49,1-1.35,2-2.71,3-4,.49-.37.3.15,0,.93l.51-.78c1.39-1.14,1-.21.42,1l-1.51,1c-.5,1.2-.91,2.35-.46,2.4a12.24,12.24,0,0,1,.91-1.35c-.13.32-.19.53,0,.46s.36-.58.8-1.27l1.29-.34,0-.39c1.57-1.46,3.12-2.94,4.79-4.28l2-2.79c.71-.9,1.45-1.82,2.26-2.79l1.28-1.5c.46-.51,1-1,1.5-1.52a44.43,44.43,0,0,1,3.71-3.33c-1.18,1.48.19.91.48,1.47a10.09,10.09,0,0,0-3.26,2.4l-1.89,1.79c-.64.64-1.33,1.29-2.06,1.89,1.53-1.25,1.39-.74,1.09-.34,1.51-1.66,3.19-3.15,4.82-4.72.19.49,1.34-.6,2.91-1.44-.83,0,.09-.88,1.48-2l1.11-.85,1.21-.82c.79-.55,1.54-1.08,2.08-1.52.32.2-.05.84-2.9,2.59,3.51-1.34,3.33-3.65,6.85-4.9-.71.42-1.12.6-1.31.91a23.1,23.1,0,0,1,3.3-2c1.14-.58,2-.84,1.58-.47l-.72.38c1.22-.59,2.75-1.36,4.36-2.21l5-2.4c3.23-1.48,5.92-2.81,6.17-3.33a3.81,3.81,0,0,1-.56,1.49c2.69-2,5.46-4,8.37-5.78-.61.95,3,1.7-1.19,3.36.63-.13,1.34-.28,2.21-.52s1.88-.61,3.17-1c-.88.1-2.4-.49-1.25-.85,3.43,0,2.35-.17,6.48-.36-1.33.1-.13-1.3,1.95-1.67-.29.23.38,1.08-.35,1.34l2.45-1c.83-.35,1.66-.63,2.5-.95-1.27.39-.08,1,1.1,1.13-.28-.07.83-.23,2.18-.4s2.95-.24,3.63-.37l-2.21-.05a19.62,19.62,0,0,0,5.75-1.21,24,24,0,0,1,2.33-.67,13.83,13.83,0,0,1,3.48-.33c-.72.23-1.72,1.42,1.23,1.57a32.83,32.83,0,0,1,4.21-1.6,24.2,24.2,0,0,1,7.22-1.08l1,.42c1.36,0,2.72,0,4.07.1l-13.51,2.3c2.18.36.59.42,3.86.55,1.13.36-1.8.38-2.75.35,2.52.19,5,.35,7.54.71-.14-.35,1.32-.37,2.8-.38s2.94.14,2.83-.17c-2.76-.24-5.55-.19-8.3-.25-.14-.35,1.08-.71,3-.9a22.89,22.89,0,0,1,3.39-.09,35.25,35.25,0,0,1,3.94.45c1.33.47-1.22,1-1.13,1.27a13,13,0,0,1,2.9.18,15.31,15.31,0,0,1,2.69.54l-2.32-.09a17.05,17.05,0,0,0,4,.52,12.67,12.67,0,0,1,4.36,1.1c1.22.31,3.36,1.82,3.67,1.51-1.72-1.33-1.5-3.74,0-3.88l3.43,1.5a22.94,22.94,0,0,1,2.38,1.17c.72.38,1.3.71,1.61.92,1.75,1.28-3.42.29-1.93,1.38a4.72,4.72,0,0,1,1.76.12c1.18.6-.71.35,2,1.24.69-.46,5.34,2.31,1.46,0a17.72,17.72,0,0,1,2.73,1.14l3,1.46c-.38-.43.44-.45,1.7-.23a18.13,18.13,0,0,1,4.26,1.28c-.23.08.23.58.45.82,1.27.71,2.38,1.35,3.41,1.95s1.92,1.26,2.83,1.86l2.75,1.84c.92.67,1.91,1.37,3,2.13.33.41,2.34,2.06,1.26,1.66a14.9,14.9,0,0,1,2.73,1.6c2.19,2.41-3-2.16-1.48-.11.39-.18,3.78,2.09,5.7,3.49a6.56,6.56,0,0,0-2.39-2.3c-1.3-.89-2.83-1.82-3.85-2.44.25-.34,1.32-.07,2.94.69a27.86,27.86,0,0,1,2.79,1.51c1,.65,2.11,1.41,3.27,2.26,1.82,1.37,2,1.87,2,2s-.51-.06-.18.16a40,40,0,0,0,3.64,3.18c.92.77,1.64,1.27,2.32,1.75a18.12,18.12,0,0,1,2.08,1.63,21,21,0,0,1,2.62,3.09c1.46,2.47-.72.8-.6,1.52a33.09,33.09,0,0,1-2.92-3.44c-.8-1-1.49-1.87-2.36-2.76l1.95,2.38a24.51,24.51,0,0,1-3.56-3.45,23.48,23.48,0,0,0,2.15,2.54l1.75,1.88,1.93,2.22c.67.77,1.38,1.55,2.05,2.37l1.93,2.49a45.8,45.8,0,0,1,3.23,4.65c.82.84,2.14,2.36,1.77,1.47l-1.27-1.64c-.76-1.8,2.77,2.82,1.4.58,1,1,1.88,2.2,2.89,3.48.5.65,1,1.34,1.49,2.09s.92,1.58,1.36,2.46l-.16.95a10.49,10.49,0,0,0-1.69-3.27,20.16,20.16,0,0,1,1.75,3.44c.32.69.66,1.38,1,2a4.59,4.59,0,0,0,1.06,1.41c-.3-.87-.57-1.77-.93-2.63.86,1.13,1.74,2.45,2.68,3.84a23,23,0,0,1,2.42,4.58c-.13-1.71-.39-.71-.82-3.29.22,2.32-4.12-8-3.32-4.5a13.06,13.06,0,0,0-1.31-3.4c-.54-1.08-1.13-2.25-1.77-3.84-.11.19.32,1.21-1.21-1.34a4.7,4.7,0,0,1-.5-.45l-.09-.17.07.15c-.1-.09-.11-.1,0,.05a6.17,6.17,0,0,1,.56,1.44,24.58,24.58,0,0,1-2.45-3c-1-1.21-1.93-2.45-2.49-3-.94-1.47.61.46.23-.45-.55-.57-1.11-1.13-1.71-1.67.22-.45-2.31-4.1.47-1l-2.3-2.93a32.9,32.9,0,0,0-4.55-5.43c-1.16-1.33-3.45-2.84-2.13-2-.72-.66-1.42-1.34-2.14-2L409.93,286l0-.12a85.48,85.48,0,0,0-6.87-5.65c-2.5-1.78-5-3.76-7.49-5.89L393,272.73c-1-.57-2.12-1.25-3.47-2.15l-.34-.67L385,267.46a12.58,12.58,0,0,0-3.36-1.66A11.32,11.32,0,0,0,379,264c-.59-.32-1.24-.65-1.92-1s-1.44-.61-2.2-.92c-1.51-.59-3.06-1.25-4.53-1.74s-2.81-1-3.83-1.38l-.32.43a44.28,44.28,0,0,0-4.36-1.32l-2.36-.61c-.83-.19-1.7-.34-2.62-.53l.11.49c-1.6-.2-3.56-.84-5.8-1.37l-3.5-.88c-1.21-.26-2.47-.46-3.73-.64a7.47,7.47,0,0,1,2.53.35,27.31,27.31,0,0,0-4.57-1c-1.57-.17-3.16-.21-4.73-.26s-3.13,0-4.64,0-2.95-.15-4.32-.31a13.65,13.65,0,0,1-3.34,0l.34,0h-.56c-.61-.09-1.24-.15-1.92-.19.58.09,1.13.14,1.61.19-1.06,0-2.66.18-4.23.35l-.7-.45-.36,0c-1.56-.1-1.23.29-.38.61a13.28,13.28,0,0,0-2,.45,5.21,5.21,0,0,0-2.76,0,15.14,15.14,0,0,1-1.62.18,4,4,0,0,1-1.49-.13,29.88,29.88,0,0,1-4.35,1c-1.89.5-3.74,1-4.06,1.54-.07-.1-.54-.06.29-.23a18.94,18.94,0,0,0-4.92,1.15l-.86-.42-1.75.85-1.72.93c-2.32.29-3.32.35-1.23-.75l-4.57,2a34.26,34.26,0,0,0-3.89,1.89l.08-.46c-1.57.64-3.87,2.13-4.93,2.21a30,30,0,0,0-4.39,1.61c-1,.4-2,.9-3.1,1.46l-3.47,1.78c-4.74,2.63-9.95,5.91-14.05,8.56,1.12-.07.11.46-1.12,1.18s-2.66,1.66-2.53,2.13c-.61.14-1.78.86-.69-.31-1.89,1.62-3.3,2.85-4.62,3.9a15,15,0,0,0-3.33,3.59c-.6.2.49-1,0-.8a6.71,6.71,0,0,1-1.46,1.52c-.48.24.36-.67.85-1.31a25.31,25.31,0,0,0-2.06,2.24,7,7,0,0,0-.9,1.54,1.91,1.91,0,0,0,0,1.66,17.23,17.23,0,0,0-2.3,2.11,10.6,10.6,0,0,0-1.33,2.26c-.77.5-1.94,1.47,0-1L232.79,298l-1.17,1.33-1.16,1.48c-1.53,2-2.88,3.87-2.63,4.15a11.94,11.94,0,0,0-1.64,2.43c-1.14,1.62-1.76,2.5-2.31,3.42s-1.12,1.81-2.1,3.48l.65-.86c-.17,1.68-1.47,2.87-2.89,5.67l0-.12a26.39,26.39,0,0,0-1.83,3.13,14,14,0,0,0-.61,1.38,12.3,12.3,0,0,1-.61,1.35l-.66,1.23-1,1.94.59-.16c.35.51-.39,1.88-1.38,3.63a30.36,30.36,0,0,0-2.54,6l.76-1.3a14.21,14.21,0,0,1-1.87,3.87,19.42,19.42,0,0,0-2.11,3.86c-.2.46,0-.8.18-1.48-2.08,5.63.41.91-.54,5.24-.51.72-.62-1.24-1.34,1.68a35.86,35.86,0,0,0-.69,5.38c-.07,1.25-.17,2.58-.32,3.84-.08.63-.17,1.24-.28,1.82s-.19,1.13-.32,1.63c.34-.87.69-1.72.68.35-.28,3.1-1.68,8.43-.86,11.3-.07.4-.14.55-.21.57.13,1.2.14,3.16.36,5a24.73,24.73,0,0,0,.68,4.23c-.41.58-.42,1.8-.31,3.3a35.42,35.42,0,0,0,.75,5c.36,1.69.67,3.31.89,4.5s.24,2-.14,2.05c.26,1.21.47,2.43.77,3.63l.91,3.58-.2-.15a28.49,28.49,0,0,0,1.51,5,18.57,18.57,0,0,0,1.3,2.61c.26,1.06-.14.35-.24.29a47.72,47.72,0,0,0,2.28,6.74,39.11,39.11,0,0,0,3,5.51l-.2.76c.81,1.32,3.63,9.39,7.82,14.81-.08,0-.24-.09-.59-.51,2.28,3.08,4.59,7,6.91,10.27s4.53,5.81,6.12,6.26c1.19,1.18,2.52,2.23,3.77,3.34-4.41-4.74,1.23.15-.4-2a21.24,21.24,0,0,1,2.49,2.92c.57.75.58,1.06-.55,0l-.28-.41c-1.54-.08,5.59,5.79,5.09,6.09a146.74,146.74,0,0,0,15,11.49l3.92,2.51c1.32.79,2.67,1.54,4,2.3.67.37,1.33.77,2,1.11l2,1c1.37.65,2.7,1.38,4.1,1.95-.33-.4-.66-.79-1-1.22,1.26.59,2.55,1.11,3.82,1.67,1,.58,1.15,1.1-1.6-.08a10.57,10.57,0,0,0,4.91,1.44c5.39,2.27-2.45,0-.78.65l2.32.78-.49-.27c1,.2,1.54.24,2.28.38.36.07.77.18,1.3.33s1.2.32,2,.59c2.13.8,1,.77,1.83,1.06,0,0,.27.16,1.31.42,1.7.49,3.41.92,5.11,1.38l-1.91-1.08c2.33.31,4.8,1.21,2.59,0,1.61.88,6.41,2,11.11,2.63,2.35.35,4.67.48,6.53.68s3.28.2,3.83.32c.82-.07,1.63-.1,2.46-.12s1.66-.09,2.51-.11c1.71,0,3.52,0,5.51-.09-1-.07-1.6-.7,1.81-.78-.59.68,1,.83,3.08.72a35.4,35.4,0,0,1,6.11,0c-1.28-.14,1.15-.53,3.39-.93s4.27-1,2.27-1c2.84-.43.26.46,2.47.36,6.6-1.83,14.81-3.25,22.63-6.66.06-.21-1.36.07.23-.85,1.5-.25,3-.65,4.45-1a5.92,5.92,0,0,0,1.42-1.16,6.51,6.51,0,0,1,2.55-1.2c-.45.07-1.12.16-.15-.4a94.18,94.18,0,0,0,21.27-13.51,241.56,241.56,0,0,0,18.61-17.44c-1.74,1.53-.78.34.33-1-.79.82-.32-.29-.65-.27,1.59-1.73,3.22-3.44,4.77-5.23.09-.73,1.15-2.29,2.17-3.8s1.88-3,1.82-3.5l-1.06,2c.45-1.47-.43-.79-1.52.09s-2.44,2-2.71,1.51A8.92,8.92,0,0,1,423,445c-.66.81-1.48,1.62-2.3,2.5a28.76,28.76,0,0,0-4.78,6.06c-.9.77.42-1-.16-.63-.52,1.32-1.61,2.54-3.79,4.63l.16-.32c-1.39,1.6-2.77,2.79-4,4s-2.41,2.14-3.64,3.13-2.46,2-3.94,3.05-3,2.28-5,3.57l.85,0a24.16,24.16,0,0,1-3,1.72c-1.49,2,4.68-3.31,3.41-1.42a14,14,0,0,0-3,1.65l-4.25,2.69a45,45,0,0,1-4.22,2.4,6.94,6.94,0,0,1-2.78,1c-2.78,1.43,1.08.07-1.71,1.5l-.87.12-.54.7c-1.85.91-3,.93-3.15.75.47-.18,1.26-.65,1.73-.89a33.2,33.2,0,0,0-4.44,1.94,32.19,32.19,0,0,1-3.24,1.44c1-.32,1.9-.62,2.85-1-1.95.86-4,1.76-6.18,2.56s-4.39,1.6-6.66,2.22l-3.37,1-3.34.86c-2.19.64-4.35,1.07-6.35,1.63l.66.1c-.77.2-1.42.37-2,.49l-1.5.25c-.87.12-1.53.18-2.2.23l-2.32.18c-.95.06-2.17.17-3.9.38l.25-.07a23.13,23.13,0,0,1-5.12.62c1.74-.34-3.32-.35-1-.75-3.41.32-4.26.33-4.82.49a15.79,15.79,0,0,1-3.11.67l-1-.42c-.78.13-1.21.24-1.88.3a17.31,17.31,0,0,1-3.32,0c2.87,0-2.16-.78,1-.88a36.6,36.6,0,0,0-4.75-.71c-1.4-.15-2.62-.27-3.72-.34a11.56,11.56,0,0,1-5.44-1.3c-1.74.17-.23.62,1.49,1s3.67.58,2.72.57c.75.28,0,.37-1.16.33a27.08,27.08,0,0,1-4-.61,12.71,12.71,0,0,1-3.37-1.43,23.66,23.66,0,0,0-2.37-1.05c-.47-.18-1-.36-1.57-.54s-1.21-.42-1.9-.64c.55.18.61.12,1.16.29A18,18,0,0,0,291,488c-.55-.13-1.12-.27-1.7-.46a11.07,11.07,0,0,1-1.74-.79c-1.63.07-3.26-1.21-3.95-.62l5.12,1.65c-1.47-.42-2.95-.65-4.65-1.05a25.36,25.36,0,0,1-5.8-2.29,21.28,21.28,0,0,1,2.88.68c-1.25-.8-2.69-.91-4-1.8.35-.24,1.86.37,3.7,1.1.92.38,1.91.8,2.88,1.15a21,21,0,0,0,2.76.72,18.9,18.9,0,0,0-3.25-1.15c-1.08-.37-1.76-.64-.85-.72a9.38,9.38,0,0,1-4.08-1.23,21.81,21.81,0,0,0-5-2.13l.45-.32a14.69,14.69,0,0,1-2.85-1.17l2.11.45c-3.05-1.07-5.2-3.28-7.9-4.68,2.72,1.67,3,2,2.78,2.07s-.8.05.31.85c-7.13-3.56-3.34-3.29-10.71-8.09,1,.65,3.53,2.77,1.86,1.91-.66-.53-1.45-1.11-2.11-1.72a18.64,18.64,0,0,1-1.57-1.6c-4.71-3.46.41.93-1.75-.35-1.25-1.64-2.38-1.62-4.49-3.13l.3-.38c-.62-.57-1.11-1-1.51-1.33s-.68-.59-.91-.76a1.88,1.88,0,0,0-.91-.41c-.43-.07-.8-.09-2.88-2.29l2.33,1.26c-.8-.68-1.63-1.33-2.4-2,.28,0,.55.06.84.07a28.79,28.79,0,0,1-5.48-5.55c.26.81-.94.26-2.92-2-1.08-1.74,1,.6-1.64-2.64a6.76,6.76,0,0,1,2.61,2.79c.24,0,.85.51,1.09.55-1.23-1.8-3.41-4.24-4.37-5.42a12.89,12.89,0,0,1,.93,1.36c-.71-.73-1.44-1.44-2.14-2.18l-2-2.28c-.41-.89.15-.35.71.18-.75-1-1.48-1.51-2.5-3,.59.17.83-.12,2.47,1.83-1.27-1.45-2.4-3-3.57-4.54-.08-.41-1.19-2.74-.67-2.19a39.9,39.9,0,0,0-3-4.75,33.53,33.53,0,0,1-3.08-5.65,6.86,6.86,0,0,1-.84-1.33c-.39-.92-.75-1.82-1.11-2.72l-1-2.75c-.33-.93-.71-1.87-1.11-2.84s-.8-2-1.31-3.09c-.06-.92-.17-1.83-.18-2.76-1.2-3.5.18,3.76-1.82-2.09-1.44-4.15.11-1.73-.09-3.26-.43-1-1-2.39-1.59-4a22,22,0,0,1-1-5.59C211,396.79,211.12,397.84,211.41,399.05Zm-.66-45.49c0,.44-.07,1.11-.14,1.74a3.8,3.8,0,0,1-.31,1.54C209.9,355.75,210.28,355,210.75,353.56Zm31.06-61.65a9.13,9.13,0,0,1-2,2A14.87,14.87,0,0,1,241.81,291.91Zm177.08,3.41-.09-.06C417.59,293.59,418,294.19,418.89,295.32Zm2.58,3.4c.32.3.35.23.29,0a9.81,9.81,0,0,1-1.54-1.78A5,5,0,0,0,421.47,298.72ZM292.6,492.63l-.75-.36C293.67,492.68,293.14,492.65,292.6,492.63Z" transform="translate(-194.44 -248.55)"/><path class="cls-1" d="M236.93,298.22a.62.62,0,0,1-.45.12C236.32,298.66,236.38,298.73,236.93,298.22Z" transform="translate(-194.44 -248.55)"/><path class="cls-1" d="M220.63,425.85l.05.12c.06.06.1.09.14.09Z" transform="translate(-194.44 -248.55)"/><path class="cls-1" d="M367,264.63a8.22,8.22,0,0,1-1.46-.79C365.41,263.94,365.74,264.16,367,264.63Z" transform="translate(-194.44 -248.55)"/><path class="cls-1" d="M434.7,317.12c-.44-.8-1-1.56-1.45-2.34a10.62,10.62,0,0,1,1.07,2.23C434.39,316.91,434.3,316.36,434.7,317.12Z" transform="translate(-194.44 -248.55)"/><path class="cls-1" d="M441.06,340c.17.36.24.79.41,1.15l.18-.17C441.16,339.37,440.66,338.3,441.06,340Z" transform="translate(-194.44 -248.55)"/><path class="cls-1" d="M434.44,320.12c-.13.18,0,.64.34,1.25s.76,1.4,1.18,2.25l-.14-.31c.37.14.31-.24,0-.86A24.22,24.22,0,0,0,434.44,320.12Z" transform="translate(-194.44 -248.55)"/><path class="cls-1" d="M436.16,324c.26.53.51,1.07.74,1.6C437.2,325.72,436.64,324.94,436.16,324Z" transform="translate(-194.44 -248.55)"/><path class="cls-1" d="M425,302.84c.44.8.75.16.92.68.5.26-.51-.89-1.26-1.61-.37-.36-.69-.6-.71-.52A7.19,7.19,0,0,0,425,302.84Z" transform="translate(-194.44 -248.55)"/><polygon class="cls-1" points="239.51 73.53 239.65 72.7 238.8 71.95 239.51 73.53"/><path class="cls-1" d="M426.84,309l1.52,2.6c.05-.08.3.22.59.59A22.71,22.71,0,0,0,426.84,309Z" transform="translate(-194.44 -248.55)"/><path class="cls-1" d="M429,312.21a20.79,20.79,0,0,0,1.3,2.05C430,313.81,429.42,312.83,429,312.21Z" transform="translate(-194.44 -248.55)"/><path class="cls-1" d="M431.93,318.5l-.32-.84-1-1.85C431,316.71,431.53,317.58,431.93,318.5Z" transform="translate(-194.44 -248.55)"/><path class="cls-1" d="M405.61,284.66l-2.6-2c-.37-.08.25.58,1.23,1.31C404.91,284.37,405.89,285.11,405.61,284.66Z" transform="translate(-194.44 -248.55)"/><path class="cls-1" d="M411.86,292.46a4.72,4.72,0,0,1-.73-1.3l-.51.37Z" transform="translate(-194.44 -248.55)"/><path class="cls-1" d="M404.89,286c-.37-.08-3.92-2.66-.76,0C404.51,286.05,407.05,288.09,404.89,286Z" transform="translate(-194.44 -248.55)"/><polygon class="cls-1" points="168.31 12.84 169.11 13.07 169.31 12.07 168.31 12.84"/><path class="cls-1" d="M320,258.4c3.8.07.88-.69,4.32-.51.9-.29-2.82-.15-1.91-.39C320.14,257.86,318.93,257.78,320,258.4Z" transform="translate(-194.44 -248.55)"/><path class="cls-1" d="M322.43,257.5c.37-.05.76-.12,1.18-.21C322.94,257.39,322.63,257.45,322.43,257.5Z" transform="translate(-194.44 -248.55)"/><path class="cls-1" d="M428.85,442.7c.55-.65,1-1.36,1.54-2l-1.15,1.22C429.12,442.16,429,442.42,428.85,442.7Z" transform="translate(-194.44 -248.55)"/><path class="cls-1" d="M430.78,438.15l.87-.17.29-1.6A7.86,7.86,0,0,1,430.78,438.15Z" transform="translate(-194.44 -248.55)"/><path class="cls-1" d="M213.49,347.22l-.11-.21a6,6,0,0,0-.71,2Z" transform="translate(-194.44 -248.55)"/><polygon class="cls-1" points="15.17 131.3 15.15 130.73 14.62 131.82 15.17 131.3"/><path class="cls-1" d="M214.63,407c-.32-1.08-.75-2.33-1-3.44C214.29,405.91,214,407.47,214.63,407Z" transform="translate(-194.44 -248.55)"/><path class="cls-2" d="M382.64,317.23c-.08-.74-.45-.4-.54-.49C382.37,317.94,382.74,317.19,382.64,317.23Z" transform="translate(-194.44 -248.55)"/><path class="cls-2" d="M383.21,329.81l-.13-.26c0,.65,0,1.29-.07,1.94C383.08,330.93,383.16,330.37,383.21,329.81Z" transform="translate(-194.44 -248.55)"/><path class="cls-2" d="M378.68,341c1.26-.62,2-3.95,3-5.84l.27-.28-.22-1.12c-.35,1.26-.88,2.67-1.36,4A17,17,0,0,1,378.68,341Z" transform="translate(-194.44 -248.55)"/><path class="cls-2" d="M373.83,345.43c.45-.13-.65,1.23,1-1.11l-.22.17Z" transform="translate(-194.44 -248.55)"/><path class="cls-2" d="M374.57,344.49c.74-1-.68.51,0,0Z" transform="translate(-194.44 -248.55)"/><path class="cls-2" d="M371,349c.33-.44.63-.91.92-1.38-.33.17-1.35,1.2-1.07.72C369.79,349.65,370.13,349.52,371,349Z" transform="translate(-194.44 -248.55)"/><path class="cls-2" d="M370.28,350.51l.53-.7C370.65,349.87,370.48,350,370.28,350.51Z" transform="translate(-194.44 -248.55)"/><path class="cls-2" d="M371.89,348.34c-.33.51-.72,1-1.08,1.47.25-.09.43.05.52-.66C371.37,349.4,371.5,349,371.89,348.34Z" transform="translate(-194.44 -248.55)"/><path class="cls-2" d="M372.65,347.63c.72-.61,1.59-1.47.68,0,1-1.23,1.26-1.91,1.11-1.88S373.67,346.41,372.65,347.63Z" transform="translate(-194.44 -248.55)"/><path class="cls-2" d="M379,341.92l.84-1c.13-.35.21-.73.31-1.09C380,340.39,378.76,341.87,379,341.92Z" transform="translate(-194.44 -248.55)"/><path class="cls-2" d="M363,355.47c0,.19.68,0,.9.07l.88-.88C364.24,355,363.23,355.6,363,355.47Z" transform="translate(-194.44 -248.55)"/><path class="cls-2" d="M363.93,355.54c-.44.45-.9.86-1.36,1.29C364,355.92,364.1,355.61,363.93,355.54Z" transform="translate(-194.44 -248.55)"/><path class="cls-2" d="M370.63,351.29c.58-.88,1.18-1.72,1.71-2.6-.68,1-1.38,2-2.13,3C370.35,351.56,370.5,351.43,370.63,351.29Z" transform="translate(-194.44 -248.55)"/><polygon class="cls-2" points="162.65 110.68 163.38 109.85 162.03 111.24 162.65 110.68"/><path class="cls-2" d="M353,361.5c.57-.6-1.18,0-.52-.49a22.62,22.62,0,0,0-2.8,1.91A14.74,14.74,0,0,1,353,361.5Z" transform="translate(-194.44 -248.55)"/><path class="cls-2" d="M348.27,363.9c.46-.27.9-.62,1.39-1A13,13,0,0,0,348.27,363.9Z" transform="translate(-194.44 -248.55)"/><path class="cls-2" d="M359.87,358.5a2.81,2.81,0,0,0-1.47.4h.85Z" transform="translate(-194.44 -248.55)"/><path class="cls-2" d="M359.28,358.88h0c-.68.41-1.18.66-1.38.78C358,359.57,358.48,359.35,359.28,358.88Z" transform="translate(-194.44 -248.55)"/><path class="cls-2" d="M360,358.41l-.16.09C360,358.5,360,358.49,360,358.41Z" transform="translate(-194.44 -248.55)"/><path class="cls-2" d="M366.74,354.25c-.66.91-2.41,2.46-.38,1.41C366.81,355,365.69,355.58,366.74,354.25Z" transform="translate(-194.44 -248.55)"/><path class="cls-2" d="M361.09,358.37c.59-.31,1.14-.68,1.71-1-.1-.07-.48,0-.1-.41C362.16,357.41,361.65,357.92,361.09,358.37Z" transform="translate(-194.44 -248.55)"/><polygon class="cls-2" points="165.9 110.45 166.65 109.82 166 110.18 165.9 110.45"/><path class="cls-2" d="M351.55,362.85a15.49,15.49,0,0,1-2.52,1.41,34.59,34.59,0,0,0,3.19-1.34C352.3,362.73,352.64,362.3,351.55,362.85Z" transform="translate(-194.44 -248.55)"/><path class="cls-2" d="M355.38,361.05l-.16.11C355.34,361.14,355.43,361.1,355.38,361.05Z" transform="translate(-194.44 -248.55)"/><path class="cls-2" d="M339.19,368.12h.18s0-.05,0-.08Z" transform="translate(-194.44 -248.55)"/><path class="cls-2" d="M352.42,362.91a4.56,4.56,0,0,0,1.61-1c-.56.32-1.16.65-1.81,1C352.18,363,352.19,363.05,352.42,362.91Z" transform="translate(-194.44 -248.55)"/><path class="cls-2" d="M345.65,365.22a14.85,14.85,0,0,0,1.47-.36A4,4,0,0,0,345.65,365.22Z" transform="translate(-194.44 -248.55)"/><path class="cls-2" d="M354.91,361.19l.1-.08C354.72,361.16,354.78,361.19,354.91,361.19Z" transform="translate(-194.44 -248.55)"/><path class="cls-2" d="M354.91,361.19a9,9,0,0,0-.88.76c.44-.27.85-.54,1.19-.79Z" transform="translate(-194.44 -248.55)"/><path class="cls-2" d="M337,371.77c0-.43,2.09-1.51,4.11-1.79,1.75-1,.08-1.73-1.76-1.85,0,.18.07.35-1.76,1.22.74,0,4.37-1,2.9-.1-2.45,1.09-2.11.59-3.4.81,1.2.12-3,1.77-2.22,2.26l2.15-1C337.12,371.43,336.37,371.88,337,371.77Z" transform="translate(-194.44 -248.55)"/><path class="cls-2" d="M343,366.86l.75-.33a15.5,15.5,0,0,1-2.84.49c-1.22.64-1.44.87-1.48,1,1.28-.43,2.54-.88,3.81-1.34Z" transform="translate(-194.44 -248.55)"/><path class="cls-2" d="M347.11,365.15c-.41.66-2.19,1.55-.89,1.53,2.23-.94,1.43-1,2.68-1.71-3.53,1.62.93-.66-1.74.21.67-.36,1.29-.65,1.87-.92-.66.23-1.3.43-1.91.6h.11c.17,0,.23,0,0,0l-.07,0a.52.52,0,0,1-.1.22c-1.06.35-.21,0,.1-.22,0,0,0-.06,0-.08h0c-1.15.59-2.33,1.12-3.5,1.68A35,35,0,0,0,347.11,365.15Z" transform="translate(-194.44 -248.55)"/><path class="cls-2" d="M365.25,357.66c-.12,0-.13,0-.16,0C364.92,357.85,364.86,357.93,365.25,357.66Z" transform="translate(-194.44 -248.55)"/><path class="cls-2" d="M363.78,358.38a3.55,3.55,0,0,1,1.07-1c.72-.37.12.17.24.26.38-.43,1.38-1.42-.14-.54l-.19.21a9.37,9.37,0,0,1-3.14,1.26A5.07,5.07,0,0,0,363.78,358.38Z" transform="translate(-194.44 -248.55)"/><path class="cls-2" d="M355.55,362.36c-.92.58-1.86,1.11-2.81,1.65l1.66-.4-.18-.16C355.91,362.69,355.42,362.61,355.55,362.36Z" transform="translate(-194.44 -248.55)"/><path class="cls-2" d="M338.77,368l.25-.57c-.51.41-1,.82-1.56,1.22Z" transform="translate(-194.44 -248.55)"/><polygon class="cls-2" points="140.34 120.9 140.37 120.47 139.38 121.05 140.34 120.9"/><path class="cls-2" d="M369.2,441l.48-.77C369.44,440.56,369.3,440.8,369.2,441Z" transform="translate(-194.44 -248.55)"/><path class="cls-2" d="M364.65,445.73V446C364.82,445.7,364.86,445.56,364.65,445.73Z" transform="translate(-194.44 -248.55)"/><path class="cls-2" d="M256.06,426.73c-.11,1.53-.26,3.32.14,3l.31-.55A9.21,9.21,0,0,1,256.06,426.73Z" transform="translate(-194.44 -248.55)"/><path class="cls-2" d="M312.61,463.83l-.41-.14-1,.39Z" transform="translate(-194.44 -248.55)"/><path class="cls-2" d="M313.61,462.05c.61.12,1.22.18,1.83.27C315,462.22,314.44,462.16,313.61,462.05Z" transform="translate(-194.44 -248.55)"/><path class="cls-2" d="M374,407l-.71-.92C373.71,407.71,373.73,406.94,374,407Z" transform="translate(-194.44 -248.55)"/><path class="cls-2" d="M293.08,382.52a23.33,23.33,0,0,0-3,.65C291.58,383,292.82,383,293.08,382.52Z" transform="translate(-194.44 -248.55)"/><path class="cls-2" d="M370.92,446.07c.38-.5.5-.75.41-.8C370.94,445.78,370.75,446.09,370.92,446.07Z" transform="translate(-194.44 -248.55)"/><path class="cls-2" d="M286.72,384.26l.65-.11a22.44,22.44,0,0,1,2.73-1A8.18,8.18,0,0,0,286.72,384.26Z" transform="translate(-194.44 -248.55)"/><path class="cls-2" d="M341.11,321.33c-.1,0-.23,0-.32,0S340.91,321.4,341.11,321.33Z" transform="translate(-194.44 -248.55)"/><path class="cls-2" d="M301.44,315.12c.37.1,1,.3,1.53.49A8.8,8.8,0,0,0,301.44,315.12Z" transform="translate(-194.44 -248.55)"/><path class="cls-2" d="M318.37,374.38c.86-.29.13-.09,0,0Z" transform="translate(-194.44 -248.55)"/><path class="cls-2" d="M323.09,374.73c-.17.1-.29.2-.28.3A.58.58,0,0,1,323.09,374.73Z" transform="translate(-194.44 -248.55)"/><path class="cls-2" d="M279.14,390l-.08,0C279.34,390,279.3,390,279.14,390Z" transform="translate(-194.44 -248.55)"/><path class="cls-2" d="M319.74,374.17c-.35.05-.73.12-1.15.22C318.78,374.36,319.13,374.3,319.74,374.17Z" transform="translate(-194.44 -248.55)"/><path class="cls-2" d="M319.5,374l.77-.2C320.36,373.73,320.25,373.72,319.5,374Z" transform="translate(-194.44 -248.55)"/><path class="cls-2" d="M317.17,374.77c.5-.15,1-.28,1.42-.38-.18,0-.26,0-.22,0Z" transform="translate(-194.44 -248.55)"/><path class="cls-2" d="M352,346.81l0-.2C351.79,345.69,351.85,346.1,352,346.81Z" transform="translate(-194.44 -248.55)"/><path class="cls-2" d="M270.22,445.87l-.08-.06.08.1Z" transform="translate(-194.44 -248.55)"/><path class="cls-2" d="M272.6,447.84a4.45,4.45,0,0,1-1.47-.85,5.32,5.32,0,0,1-.91-1.08c-.09.54-.16,1.08-.22,1.62C270.89,447.66,271.73,447.78,272.6,447.84Z" transform="translate(-194.44 -248.55)"/><path class="cls-2" d="M375.63,427a17.11,17.11,0,0,1-.86,2c.06-1.29.09-2.37.1-2.9s-.09-.5-.53.39c.32.13.43.7.34,1.48a17.31,17.31,0,0,1-.63,2.72,26.82,26.82,0,0,0-.86,2.66c-.21.76-.34,1.3-.06,1.52l-.88,1.12c.19-.35.15-.44.34-.79a3.51,3.51,0,0,0-1,2.27,4.77,4.77,0,0,1-1.24,2.88c-.87.92-1.56,1.46-1.16.7a20.73,20.73,0,0,1-1.54,2.32c-.58.57-.61.26,0-.3a33.82,33.82,0,0,1-3,3v0a16.05,16.05,0,0,1-1.61,2.25c-1,.49.35-.45,0-.41l-1.72,1.68c-1,.3.4-1.16,1.74-2.09a2.7,2.7,0,0,0-2.19,1.08,8.6,8.6,0,0,1-3.6,2.36l1.79-1.33a6.05,6.05,0,0,0-2.36.79,27.53,27.53,0,0,1-3,1.22c.31,0,1.55-.36,2.47-.5a2,2,0,0,1,.95,0c.13.09,0,.31-.5.69a8.69,8.69,0,0,0-2.66,1.59c-.23-.42-1.41.25-2.94,1l-.16-.64a11,11,0,0,0-2.25,1.82c-1.94.73-2.53.37-3.12.14-3.14,1,2.42,0-1.24,1.4a61.25,61.25,0,0,0-7.63,2.54c-1.94.23.25-.46-.47-.48-.52.3-1.05.56-1.58.85-.42.07-.32-.11-.26-.2-1.39.47,0,.66-2.22,1.26-.25.39-1.46.32-2.94.3a12.25,12.25,0,0,0-4.6.48c-.71-.12.3-.42.06-.65-3.83.88-3.28.67-6.46,1.55-.91-.09-1.83-.24-2.74-.35,2,.42-.54,1.11-2.83,1.51a17.6,17.6,0,0,0,1.76.55l-3.67.28c-.44-.11-.06-.32.54-.58l-.67.14c-1.3-.31-.6-.62.34-1l1.29.42c.91-.37,1.74-.79,1.56-1.17a5.5,5.5,0,0,1-1.18.15c.23-.1.38-.19.28-.25s-.5.06-1.09.21l-.79-.73-.21.28c-1.55-.23-3.09-.44-4.62-.74-.84.09-1.66.21-2.51.33s-1.71.17-2.64.23c-.46,0-.94.06-1.45.07L298,462a22.13,22.13,0,0,1-3.62-.46c1.42-.17.48-.76.7-1.34a3.1,3.1,0,0,0,1.2.55,14.32,14.32,0,0,0,1.64.21l1.89.16a15.72,15.72,0,0,1,2,.24c-1.41-.28-1.05-.52-.67-.57-1.65,0-3.26-.2-4.91-.31.22-.47-.91-.63-2.09-1.14.35.59-.59.57-1.84.27l-3.8-1c0-.37.54-.45,2.82.32a5,5,0,0,0-2.95-.77,4.24,4.24,0,0,1-2.92-.83c.54.25.82.41,1.1.33-1.4-.24-4.36-1.91-3.51-1.82l.54.24c-.88-.42-1.93-1.07-3.09-1.67s-2.29-1.39-3.41-2-2.06-1.33-2.86-1.76-1.33-.73-1.59-.66a3.51,3.51,0,0,1,1.34-.44,36,36,0,0,1-7-3c.48,0,.67-.73,1-1.18s.91-.59,2.12.45a23.53,23.53,0,0,0-2.51-3.06c.28.55.09,1.9-.48,1.24-.4-1.2-.53-1.6-.72-2.06a18.85,18.85,0,0,1-.89-2.36c.37.88-1.19.6-1.89-.77.27.12.93-.65,1.3-.23-.47-.44-.92-.9-1.36-1.38s-.88-1-1.31-1.46c.57.78.93-.25.89-1.12,0,.23-.32-.52-.66-1.42s-.67-2-.85-2.44c.06.52.16,1,.25,1.56a11.32,11.32,0,0,0-1.88-3.8,7.71,7.71,0,0,1-1.57-4c.31.49,1.56,1,1.46-1.07a16.08,16.08,0,0,1-1.86-2.88,11.8,11.8,0,0,1-1.3-5.35l.43-.71c0-.51,0-1,.07-1.53s.06-1,.14-1.53c.17,1,.5,2.92,1,4.81s1.11,3.8,1.52,5.1a7.89,7.89,0,0,0,.33-2.72c.33-.79.42,1.24.49,1.9a29.7,29.7,0,0,1,.47-5.18c-.35.07-.4-1-.34-2s.19-2-.12-2a29,29,0,0,0-.27,5.8c-.33.09-.8-.78-1-2.19a11.39,11.39,0,0,1,.59-5.22c.55-.86.92,1.07,1.16,1a9.25,9.25,0,0,1,1.13-3.75c-.1.54-.24,1.06-.3,1.6a8.54,8.54,0,0,0,.55-1.33c.12-.44.22-.88.37-1.32a5.16,5.16,0,0,1,1.62-2.65c.51-.72,2.23-1.49,2-1.86-1.44.56-3.57-.58-3.35-1.77l.72-.65,1.46-1.15a15.29,15.29,0,0,1,2.89-1.74c.78-.26.56.39.34,1s-.43,1.31.19,1.07c-.08-.17.39-.86.6-1.13.84-.46,0,.64,1.6-.63-.17-.8,3.46-2.29.43-1,1.57-1.28,1.85-1.09,3.89-2.28-.89,0,1.17-2.37,3-3.4,0,.21.48.22.73.22,3.92-1.63,6.19-2.05,9.94-3.29.39,0,2.27-.34,1.59.19a7.88,7.88,0,0,1,2.09-1c2.43-.14-2.57.89-.64,1,0-.42,2.86-1.45,4.45-2.2-.69-.42-3.88,1.07-5.47,1.83-.26-.81,2.38-2.55,6.23-4.14,3.08-1.17,1.52.1,2-.18,5.95-1.67,4.6-3,9.69-3.88,2.11-.09.4,1,.95,1.23-2.51,1-4,.89-5.77,1.44l2.22-.41A13.19,13.19,0,0,1,303,381.8c1.78,0,10-3,14.71-3.95.75-.43,2.1-1,1.37-1l-1.42.52c-1.45,0,2.54-1.41.66-1a27.91,27.91,0,0,1,6.67-2.62l.69.43a5.59,5.59,0,0,0-2.6.62c1.06-.61,4.42-.49,5.43-1.65l-2,.18a32.84,32.84,0,0,1,6.5-2.84c-1.28-.23-.53.25-2.45.11,1.75.39-6.15,1.88-3.5,2-2-.25-3.15.6-5.65.64.13.17.93.12-1.13.64a2.53,2.53,0,0,1-.39.31l-.14,0h.11c-.08,0-.08.06,0,0a3.51,3.51,0,0,1,1.12,0c-.87.75-4.1,1.73-5.12,2.29-1.23.28.44-.37-.28-.38l-1.52.85c-.3-.38-3.42.27-.66-.86l-2.56.77a20,20,0,0,0-4.89,1.33c-1.23.28-2.89,1.41-1.95.75l-3.91,1.5-.07-.1c-4,1.17-7.89,3.17-12.69,3.87a48.08,48.08,0,0,1-4.92,1.85l-.58-.2c-.83.38-2.15.82-3.34,1.25a7.56,7.56,0,0,0-2.5,1.27c-1.14,0-3.24.95-5.33,2.32a62.08,62.08,0,0,0-5.44,4.27l.25.47a22.87,22.87,0,0,0-4.67,5.87l.47.11a19.83,19.83,0,0,1-1,1.83c-.38.67-.84,1.37-1.26,2.15a21.68,21.68,0,0,0-2.17,5.25,3.94,3.94,0,0,1,.53-1.9,14.21,14.21,0,0,0-1.6,7c0,2.43.23,4.73,0,6.84a9.22,9.22,0,0,1,.25,2.52,1.5,1.5,0,0,0-.05-.26c0,.11,0,.27.05.43,0,.46,0,.95,0,1.47a9.07,9.07,0,0,0,0-1.25c.07.4.17.9.28,1.44s.31,1.12.48,1.69c-.12.2-.24.4-.35.6l.08.27c.12,1.19.46.85.65.16a8.72,8.72,0,0,0,.69,1.43c-.48,1.14,1.17,2.86.9,4.34a31,31,0,0,1,1.74,2.9c.75,1.26,1.64,2.41,2.15,2.46-.08.09,0,.42-.27-.13a10.64,10.64,0,0,0,2.05,3.16l-.19.81c.79.61,1.57,1.21,2.39,1.76.8,1.56,1.17,2.23-.35,1.24,1.65,1.36,2.31,1.89,2.89,2.39.29.25.59.47,1,.76a14.24,14.24,0,0,0,1.72,1l-.39.19c1,.84,2.93,1.54,3.33,2.27.91,1.12,3.83,3.08,7.45,4.84a101.38,101.38,0,0,0,11.36,4.48c-.53-.74.25-.41,1.22,0s2.18.82,2.4.42c.36.35,1.32.7.13.71,3.65.43,5.41,1.33,8,.83.4.31-.82.32-.46.52a3.58,3.58,0,0,1,1.55.08c.36.2-.55.18-1.15.24,3.77.27,4.19-.62,4.49-1.38a6.23,6.23,0,0,0,4.17-.1c.64.24,1.74.53-.56.62.64.05,2.63.08,4.46.06s3.52-.25,3.56-.57a6.27,6.27,0,0,0,2.14-.22c1.45-.09,2.23-.16,3-.25s1.55-.15,2.95-.4l-.79,0c1-.94,2.31-.51,4.56-1l0,.09c5.27-.49,2.16-.67,7.37-1.28l-.4-.39c.19-1.11,4.6-.64,7.33-2.08l-1.12.1a8,8,0,0,1,3.14-.55,11.62,11.62,0,0,0,3.3-.35c.37-.08-.46.4-.92.64,4.29-1.29.27-.8,3.18-2.32.7,0-.31,1.16,1.7.17a16.15,16.15,0,0,0,3.34-2.31c.73-.6,1.51-1.21,2.29-1.75a13.15,13.15,0,0,1,2.21-1.42c-.7.2-1.38.38-.27-.69.94-.69,2.26-1.59,3.56-2.49a10.16,10.16,0,0,0,1.72-1.52,5.74,5.74,0,0,0,1.1-1.58c.26-.17.39-.21.45-.17.49-.78,1.35-2,2.11-3.14a13.91,13.91,0,0,0,1.35-2.95c.6-.12,1.16-.86,1.7-1.87.27-.5.53-1.07.79-1.66s.4-1.26.59-1.88l.51-1.81c.19-.56.25-1.1.39-1.53.25-.88.53-1.42.9-1.33a39.9,39.9,0,0,0,.77-5.54l.14.15a12.76,12.76,0,0,0,.13-2.28c0-.64,0-1.17-.1-1.63a11.94,11.94,0,0,0-.58-2.14c.07-.81.24-.23.32-.17a23.6,23.6,0,0,0-.47-5.28,23.27,23.27,0,0,0-1.58-4.42l.37-.54c-.3-.53-.55-2.37-1.14-4.62-.26-1.14-.66-2.35-1.07-3.59a26.18,26.18,0,0,0-1.59-3.52c.07,0,.2.08.42.41a89.92,89.92,0,0,1-3.53-8.32c-1.12-2.68-2.21-4.85-3.47-5.33l-2.07-3c2,4.23-1-.26-.39,1.59-.95-1.59-1.71-4.49-.59-2.52l.09.36c1.2.31-2.35-5.33-1.7-5.51a76.46,76.46,0,0,1-8-24.88l-.6,1.05c-.1-1-.27-1.94-.3-2.91.12-.78.49-1.06.63,1,.32-1.11-.62-3.42-.73-3.49.27-4,.86,1.56.87.31l-.07-1.66-.08.38a8.15,8.15,0,0,1-.42-4c.33-1.55.54-.75.64-1.36.06,0,.08-.2.14-.93l.33-1.79.42-1.76-.88,1.3c0-1.65.81-3.37-.23-1.86.78-1.12,1.76-4.41,3-7.5a40.86,40.86,0,0,1,3.13-6.64,27.12,27.12,0,0,1,3.36-6.67c-.47.54-1.25.56.12-1.5.52,1.18,2.09-1.81,3.71-3.57l7.12-7.74-9.72,5.39a4.84,4.84,0,0,1-1.41.58c.89-.27-.45.79-1.67,1.82l-.86.74a5.18,5.18,0,0,0-.64.54c-.28.29-.23.42.48.23-1.77,1-.39-.34-1.85.22a29.46,29.46,0,0,1-6.78,3.9l-4,1.55c-1.35.51-2.77.92-4.15,1.47,0,.19,1,.12-.13.79-1.07.11-2.19,0-3.27,0-1.1.36-.78,1.3-3,1.18.33.09.83.22.06.43a100.52,100.52,0,0,1-17.75,1.37,43.46,43.46,0,0,1-17.4-3.77c1.4.84.39.53-.77.15.73.33-.15.4-.08.68a44.25,44.25,0,0,1-4.41-2.35,7.6,7.6,0,0,1-3-.9c-1.14-.57-2.22-1.17-2.6-1l1.44.65c-1.09-.17-.64.55,0,1.4s1.62,1.72,1.28,2.1a5.43,5.43,0,0,1,2,.67c.69.37,1.41.86,2.24,1.25a21.32,21.32,0,0,0,2.6,1.17,8.76,8.76,0,0,0,1.44.4,7.88,7.88,0,0,0,1.54.07c.81.41-.81.11-.41.45,1.11-.17,2.29.12,4.49.77l-.28.06c1.59.25,2.94.5,4.19.75s2.42.34,3.61.54a36.35,36.35,0,0,0,3.78.48l2.19.17a22.47,22.47,0,0,0,2.53.1l-.54-.45a13.94,13.94,0,0,1,2.61.21c1.75-.79-4.36.16-2.75-.71a7.85,7.85,0,0,0,2.6.31,24.23,24.23,0,0,0,3.81-.2c1.31-.14,2.61-.28,3.68-.32a5,5,0,0,1,2.28.07c2.36-.44-.79-.4,1.56-.85l.68.17.51-.48c1.53-.32,2.39-.19,2.51.05-.38.07-1,.35-1.43.47a19.09,19.09,0,0,0,3.65-.89c1.22-.36,2.22-.89,2.58-.93-.76.19-1.49.42-2.25.56l4.83-1.77c1.65-.65,3.29-1.42,5-2.14s3.18-1.7,4.7-2.56,2.83-2,4.08-2.93l-.52.08c.74-.55,1.29-1,1.74-1.39s.83-.63,1.17-.86c.69-.47,1.28-.8,2.26-1.5l-2.42-2.19c-.39.54-.87,1.26-1.48,2.27l0-.18a19.71,19.71,0,0,1-1.8,3.42c.47-1.26-1.73,1.85-1.08.23a16.26,16.26,0,0,0-1.45,3.37,15.62,15.62,0,0,1-.48,2.39l-.69.53a12,12,0,0,1-1.16,3.73c.61-2.08-1.23,1.27-.58-1.09a18.62,18.62,0,0,0-2.57,6c-.44,1.63-.7,2.91-1.65,4,.18,1.39.58.24,1-1s.89-2.67.75-2c.7-1,0,2.21-.51,3.83a13.19,13.19,0,0,1-1.3,2.46,11.63,11.63,0,0,0-1.44,4.6c.06-.45,0-.49,0-.93a10.63,10.63,0,0,0-.26,2.54,11.58,11.58,0,0,1-.25,2.85c.63,1.17,0,2.71.79,3-.06-.68-.08-1.37-.12-2.05s-.07-1.37-.05-2.06c.12,2.37,1,4.47,1.05,8.25a7.94,7.94,0,0,1-.72-2.14c-.19,1.15.41,2.12.3,3.3-.4-.1-.65-1.34-.82-2.86-.06-.76-.13-1.59-.22-2.39a16.27,16.27,0,0,0-.3-2.2,8.18,8.18,0,0,0,.12,2.7c.14.87.2,1.44-.28.84a3.46,3.46,0,0,1,.56,1.48,11.55,11.55,0,0,1,.23,1.76,10.38,10.38,0,0,0,1,4.09l-.51-.09a16.54,16.54,0,0,1,.84,2.23l-1-1.41c1.09,2.27.76,4.75,1.82,6.9-.83-2.33-.7-2.67-.51-2.64s.54.37.41-.67a21.36,21.36,0,0,1,1.05,3,6.66,6.66,0,0,1,.13,1.7c0,1,0,2.18,1.39,5.25-.41-.82-1.06-3.28-.31-2a25,25,0,0,1,1,3.67c1.92,4,.17-.83,1.21.78.1,1.62,1.13,1.88,2.14,3.54l-.43.22c1.95,4.65,1.49.75,3.19,4.94l-1.46-1.39,1.22,2-.71-.18a21.25,21.25,0,0,1,2.82,5.12c0-.67.92-.12,1.95,1.83.42,1.46-.79-.54.67,2.2a3.49,3.49,0,0,1-1.49-2.41c-.2-.05-.58-.47-.79-.53a31.33,31.33,0,0,0,2.26,4.63,10.29,10.29,0,0,1-.43-1.14c.86,1.24,1.72,2.48,2.54,3.74.13.72-.24.27-.59-.17.41.8.89,1.27,1.46,2.47-.49-.16-.83.08-1.77-1.54.73,1.21,1.41,2.45,2.1,3.68,0,.33.37,2.18,0,1.73.68,2.21,2.72,5.06,3.25,8.1a3.4,3.4,0,0,1,.49,1c.6,2.82.68,5.34,1.49,8.6-.17.65-.41,1.28-.6,1.91.14,1.28.33.65.54.22s.5-.65.65,1.53c.14,3.1-.62,1.13-.86,2.19a20.29,20.29,0,0,1,.27,3,14.51,14.51,0,0,1-.23,1.89,7.22,7.22,0,0,1-.71,1.94C375.23,428.5,375.55,427.84,375.63,427Zm-18.92,24.71c.52-.38,1.4-1.36,2-1.35C358.33,451.17,357.74,451.29,356.71,451.68Zm-49,11a4.4,4.4,0,0,1,2.08.23A9.57,9.57,0,0,1,307.66,462.69Zm1.34-85-.07.05C307.47,378,308,377.89,309,377.67Zm3-.7c.27-.15.23-.21.09-.24a4.86,4.86,0,0,1-1.59.59A2.47,2.47,0,0,0,312,377Zm43.46-39.67-.19.55C355.27,336.55,355.35,336.93,355.45,337.3Z" transform="translate(-194.44 -248.55)"/><path class="cls-2" d="M313.48,462.26a.45.45,0,0,1,.28.26C314,462.45,314,462.35,313.48,462.26Z" transform="translate(-194.44 -248.55)"/><path class="cls-2" d="M374.1,407.18l0-.1A.2.2,0,0,0,374,407Z" transform="translate(-194.44 -248.55)"/><path class="cls-2" d="M269.9,397.72a4.24,4.24,0,0,1-1,.55C268.91,398.38,269.19,398.28,269.9,397.72Z" transform="translate(-194.44 -248.55)"/><path class="cls-2" d="M327.27,371.42l-1.84.69a6.79,6.79,0,0,1,1.74-.36C327.09,371.65,326.69,371.61,327.27,371.42Z" transform="translate(-194.44 -248.55)"/><path class="cls-2" d="M344.3,368.81c.25-.15.56-.22.8-.38l-.15-.18C343.82,368.71,343.08,369.17,344.3,368.81Z" transform="translate(-194.44 -248.55)"/><path class="cls-2" d="M329.47,372.41c.27.34,1.41-.16,2.69-.65l-.23.08C332.14,371.17,330.81,371.8,329.47,372.41Z" transform="translate(-194.44 -248.55)"/><path class="cls-2" d="M332.46,371.65c.4-.14.8-.28,1.2-.39C333.74,371,333.16,371.37,332.46,371.65Z" transform="translate(-194.44 -248.55)"/><path class="cls-2" d="M315.63,375.57c.65-.09.23-.61.64-.56C316.81,374.3,312.29,376.88,315.63,375.57Z" transform="translate(-194.44 -248.55)"/><polygon class="cls-2" points="136.5 124.8 135.88 124.47 135.26 125.09 136.5 124.8"/><path class="cls-2" d="M320.45,376.21l2.14-.52c0-.07.2-.2.52-.33A12.11,12.11,0,0,0,320.45,376.21Z" transform="translate(-194.44 -248.55)"/><path class="cls-2" d="M323.11,375.36a10.3,10.3,0,0,0,1.66-.6C324.41,374.87,323.63,375.13,323.11,375.36Z" transform="translate(-194.44 -248.55)"/><polygon class="cls-2" points="133.67 125.84 133.02 125.93 131.53 126.35 133.67 125.84"/><path class="cls-2" d="M297.84,383.05l-2.25.85c-.19.23.47.14,1.3-.19C297.41,383.43,298.24,383.1,297.84,383.05Z" transform="translate(-194.44 -248.55)"/><path class="cls-2" d="M305.18,382.23a2.6,2.6,0,0,1-1.13-.05l.11.62Z" transform="translate(-194.44 -248.55)"/><path class="cls-2" d="M298.53,384.43c-.18.23-3.18,1.49-.29.56C298.43,384.76,300.68,383.92,298.53,384.43Z" transform="translate(-194.44 -248.55)"/><path class="cls-2" d="M266.12,398.9c.14-.14.26-.3.41-.44l-.78-.66Z" transform="translate(-194.44 -248.55)"/><path class="cls-2" d="M261.58,427.82c-.29-2.65-.79-.49-.89-2.93-.34-.59.07,2-.23,1.4C261,427.84,261.11,428.69,261.58,427.82Z" transform="translate(-194.44 -248.55)"/><path class="cls-2" d="M260.46,426.29c-.09-.25-.18-.52-.29-.8A4.74,4.74,0,0,0,260.46,426.29Z" transform="translate(-194.44 -248.55)"/><polygon class="cls-2" points="101.24 63.59 99.79 62.58 100.63 63.42 101.24 63.59"/><path class="cls-2" d="M292.34,311.22l0-.77h-1.23A4.1,4.1,0,0,1,292.34,311.22Z" transform="translate(-194.44 -248.55)"/><path class="cls-2" d="M351.8,452.75l-.06.19a3.3,3.3,0,0,0,1.45-.44Z" transform="translate(-194.44 -248.55)"/><polygon class="cls-2" points="175.55 190.36 175.33 190.68 176.21 190.4 175.55 190.36"/><path class="cls-2" d="M375,421c0,.39,0,.81,0,1.23a11.59,11.59,0,0,1-.07,1.21,5.73,5.73,0,0,1,.15-1.1c.06-.32.12-.6.17-.81C375.35,421.14,375.37,421,375,421Z" transform="translate(-194.44 -248.55)"/><path class="cls-3" d="M279.67,506.1l5.82-1.61,2.91-.8,11.88-3.34L319,495q18.73-5.42,37.43-11Q393.84,472.77,431,461l18.58-5.92L464,450.42l2-.64c.2,0,.35-.1.21-.3l-.17-.5-.34-1-1.37-3.93c-.93-2.64-1.72-5.21-2.59-7.81l-6.25-18.95-6.21-18.48L424,325q-6.35-18.44-13-36.79l-14.38-39.57c-1.22.33-2.51.79-3.76,1.18l-3.78,1.32-4.62,1.68-9.17,3.32-18.38,6.53q-18.4,6.46-36.92,12.59c-24.66,8.21-49.57,15.72-74.57,22.91-12.5,3.61-25,7.2-37.46,10.93l-2.56.78-3.87,1.21-3.94,1.21-2,.6-1,.3c-.17.05,0,.29,0,.43l.15.48,4.28,13.68q2.91,9.32,5.93,18.58,12.18,37.05,25.2,73.82,6.5,18.39,13.24,36.7l6.82,18.29,4.4,11.56,1.09,2.81,2.19,5.63" transform="translate(-194.44 -248.55)"/><path class="cls-4" d="M265.13,509.74q11.67-3.39,23.3-6.89,45.82-13.74,91.41-28.17l45.57-14.5,22.76-7.34,7-2.27,4-1.3,2-.65,1-.32.5-.17.25-.08c.11,0,0-.14,0-.21-.9-2.66-1.85-5.34-2.7-8L458,433.1c-9.95-30.29-20.19-60.48-30.39-90.68-5.1-15.11-10.2-30.21-15.41-45.27l-16.36-46.86-47,16.13q-22.63,7.68-45.38,15.07c-30.31,9.87-60.88,19-91.33,28.41l-13.74,4.3-1,.32-.25.08a.71.71,0,0,0,.06.23l.15.5.63,2,1.26,4,2.1,6.56q3.63,11.39,7.38,22.74,7.5,22.69,15.18,45.35,15.35,45.29,31.5,90.31,4.12,11.43,8.36,22.81" transform="translate(-194.44 -248.55)"/><path class="cls-5" d="M265.19,509.81a2,2,0,0,1-.74.13,1.85,1.85,0,0,1,.69-.29,1.62,1.62,0,0,1,.75-.13C265.91,509.57,265.59,509.69,265.19,509.81Z" transform="translate(-194.44 -248.55)"/><path class="cls-5" d="M263.67,509a1.83,1.83,0,0,0,.35.68,2,2,0,0,0-.19-.73,1.84,1.84,0,0,0-.34-.68C263.44,508.33,263.52,508.66,263.67,509Z" transform="translate(-194.44 -248.55)"/><path class="cls-6" d="M272.48,508.27l.38-.18c1.55-.76,1.75-1.32,1.27-1.62a5.27,5.27,0,0,0-2.85-.15c-2.44.33-5.12,1.37-3.49,1.25a47,47,0,0,0,6.87-1.34c2.51-.63,4.63-1.29,4.63-1.29l76-24.52,74.16-24.17L448,450.18l10.11-3.32,1.29-.42c.13,0,.23-.06.14-.2l-.11-.32-.22-.65-.86-2.58-1.7-5.14L444.4,400.44l-24.55-74L395,252,320.47,276.7q-37,12.23-74.16,24.16l-37.11,12-4.92,1.6-2.58.84-1.3.42-.64.2c-.12,0,0,.2,0,.29l.1.32,3.25,10L209.22,345l24.53,74,25.45,75.75s.73,2.09,1.73,4.48a47.42,47.42,0,0,0,3,6.31c.87,1.39.15-1.4-1-3.55a5.12,5.12,0,0,0-1.88-2.19c-.55-.2-.91.31-.6,2l.07.41" transform="translate(-194.44 -248.55)"/><path class="cls-7" d="M271,509c1-.33,2.44-.79,3.56-1.1l-1.86.32-1-.07C271.72,508.32,271.38,508.68,271,509Z" transform="translate(-194.44 -248.55)"/><path class="cls-7" d="M260.85,503.91c-.34-1-.82-2.43-1.24-3.51l.86,1.67.67.76C261,502.93,260.85,503.42,260.85,503.91Z" transform="translate(-194.44 -248.55)"/></svg>